<svg viewBox="0 0 600 600" xmlns="http://www.w3.org/2000/svg" class="block h-full w-full select-none" style="border-radius:50%" aria-hidden="true"><defs><radialGradient id="globe-glow" cx="50%" cy="50%" r="50%"><stop offset="0%" stop-color="hsl(173,76%,48%)" stop-opacity="0.08"/><stop offset="70%" stop-color="hsl(173,76%,48%)" stop-opacity="0.04"/><stop offset="100%" stop-color="transparent"/></radialGradient><radialGradient id="globe-body" cx="40%" cy="35%" r="70%"><stop offset="0%" stop-color="#1a2030"/><stop offset="60%" stop-color="#0f1320"/><stop offset="100%" stop-color="#070a12"/></radialGradient></defs><circle cx="300.0" cy="300.0" r="295" fill="url(#globe-glow)"/><circle cx="300.0" cy="300.0" r="285" fill="url(#globe-body)" stroke="rgba(255,255,255,0.04)"/><g fill="rgba(255,255,255,0.55)"><circle cx="323.0" cy="584.0" r="1.8"/><circle cx="332.4" cy="583.1" r="1.8"/><circle cx="242.5" cy="579.1" r="1.8"/><circle cx="345.4" cy="581.2" r="1.8"/><circle cx="353.8" cy="579.9" r="1.8"/><circle cx="187.6" cy="556.2" r="1.8"/><circle cx="168.9" cy="545.6" r="1.8"/><circle cx="160.4" cy="540.0" r="1.8"/><circle cx="167.2" cy="541.8" r="1.8"/><circle cx="159.0" cy="536.0" r="1.8"/><circle cx="166.1" cy="537.8" r="1.8"/><circle cx="151.4" cy="529.9" r="1.8"/><circle cx="158.3" cy="531.7" r="1.8"/><circle cx="165.5" cy="533.5" r="1.8"/><circle cx="151.0" cy="525.5" r="1.8"/><circle cx="158.2" cy="527.3" r="1.8"/><circle cx="165.6" cy="529.0" r="1.8"/><circle cx="144.4" cy="519.0" r="1.8"/><circle cx="151.4" cy="520.9" r="1.8"/><circle cx="158.7" cy="522.6" r="1.8"/><circle cx="166.4" cy="524.2" r="1.8"/><circle cx="138.2" cy="512.4" r="1.8"/><circle cx="145.2" cy="514.2" r="1.8"/><circle cx="152.5" cy="516.0" r="1.8"/><circle cx="160.0" cy="517.7" r="1.8"/><circle cx="132.7" cy="505.6" r="1.8"/><circle cx="139.6" cy="507.5" r="1.8"/><circle cx="146.8" cy="509.2" r="1.8"/><circle cx="154.3" cy="510.9" r="1.8"/><circle cx="162.1" cy="512.5" r="1.8"/><circle cx="170.1" cy="514.0" r="1.8"/><circle cx="178.4" cy="515.5" r="1.8"/><circle cx="134.5" cy="500.5" r="1.8"/><circle cx="141.7" cy="502.3" r="1.8"/><circle cx="149.2" cy="504.0" r="1.8"/><circle cx="156.9" cy="505.6" r="1.8"/><circle cx="164.9" cy="507.2" r="1.8"/><circle cx="173.1" cy="508.6" r="1.8"/><circle cx="130.1" cy="493.4" r="1.8"/><circle cx="137.2" cy="495.2" r="1.8"/><circle cx="144.7" cy="497.0" r="1.8"/><circle cx="152.4" cy="498.6" r="1.8"/><circle cx="160.3" cy="500.1" r="1.8"/><circle cx="168.5" cy="501.6" r="1.8"/><circle cx="176.9" cy="503.0" r="1.8"/><circle cx="185.5" cy="504.2" r="1.8"/><circle cx="469.9" cy="493.4" r="1.8"/><circle cx="476.8" cy="491.6" r="1.8"/><circle cx="483.3" cy="489.6" r="1.8"/><circle cx="489.6" cy="487.6" r="1.8"/><circle cx="126.2" cy="486.2" r="1.8"/><circle cx="133.4" cy="488.0" r="1.8"/><circle cx="140.8" cy="489.7" r="1.8"/><circle cx="148.5" cy="491.4" r="1.8"/><circle cx="156.4" cy="492.9" r="1.8"/><circle cx="164.6" cy="494.4" r="1.8"/><circle cx="173.0" cy="495.8" r="1.8"/><circle cx="181.6" cy="497.1" r="1.8"/><circle cx="190.3" cy="498.3" r="1.8"/><circle cx="467.6" cy="487.8" r="1.8"/><circle cx="474.7" cy="486.0" r="1.8"/><circle cx="481.5" cy="484.1" r="1.8"/><circle cx="488.0" cy="482.1" r="1.8"/><circle cx="494.2" cy="480.1" r="1.8"/><circle cx="500.1" cy="478.1" r="1.8"/><circle cx="123.0" cy="478.9" r="1.8"/><circle cx="130.2" cy="480.7" r="1.8"/><circle cx="137.6" cy="482.4" r="1.8"/><circle cx="145.2" cy="484.0" r="1.8"/><circle cx="153.2" cy="485.6" r="1.8"/><circle cx="161.3" cy="487.1" r="1.8"/><circle cx="169.7" cy="488.5" r="1.8"/><circle cx="178.3" cy="489.8" r="1.8"/><circle cx="187.1" cy="491.0" r="1.8"/><circle cx="196.0" cy="492.1" r="1.8"/><circle cx="465.7" cy="481.7" r="1.8"/><circle cx="473.0" cy="479.9" r="1.8"/><circle cx="480.0" cy="478.1" r="1.8"/><circle cx="486.7" cy="476.2" r="1.8"/><circle cx="493.2" cy="474.2" r="1.8"/><circle cx="499.3" cy="472.2" r="1.8"/><circle cx="505.1" cy="470.1" r="1.8"/><circle cx="120.4" cy="471.4" r="1.8"/><circle cx="127.6" cy="473.2" r="1.8"/><circle cx="135.0" cy="474.9" r="1.8"/><circle cx="142.7" cy="476.6" r="1.8"/><circle cx="150.6" cy="478.1" r="1.8"/><circle cx="158.8" cy="479.6" r="1.8"/><circle cx="167.2" cy="481.0" r="1.8"/><circle cx="175.7" cy="482.3" r="1.8"/><circle cx="184.5" cy="483.5" r="1.8"/><circle cx="193.4" cy="484.6" r="1.8"/><circle cx="464.2" cy="475.1" r="1.8"/><circle cx="471.7" cy="473.4" r="1.8"/><circle cx="478.9" cy="471.6" r="1.8"/><circle cx="485.8" cy="469.8" r="1.8"/><circle cx="492.4" cy="467.9" r="1.8"/><circle cx="498.8" cy="465.9" r="1.8"/><circle cx="504.8" cy="463.8" r="1.8"/><circle cx="510.5" cy="461.7" r="1.8"/><circle cx="118.4" cy="463.9" r="1.8"/><circle cx="125.6" cy="465.7" r="1.8"/><circle cx="133.1" cy="467.4" r="1.8"/><circle cx="140.8" cy="469.0" r="1.8"/><circle cx="148.8" cy="470.5" r="1.8"/><circle cx="157.0" cy="472.0" r="1.8"/><circle cx="165.3" cy="473.4" r="1.8"/><circle cx="173.9" cy="474.7" r="1.8"/><circle cx="182.7" cy="475.9" r="1.8"/><circle cx="191.7" cy="477.0" r="1.8"/><circle cx="470.8" cy="466.5" r="1.8"/><circle cx="478.2" cy="464.7" r="1.8"/><circle cx="485.2" cy="462.9" r="1.8"/><circle cx="492.0" cy="461.1" r="1.8"/><circle cx="498.5" cy="459.1" r="1.8"/><circle cx="504.7" cy="457.1" r="1.8"/><circle cx="510.7" cy="455.0" r="1.8"/><circle cx="516.3" cy="452.9" r="1.8"/><circle cx="542.9" cy="439.1" r="1.8"/><circle cx="117.1" cy="456.2" r="1.8"/><circle cx="124.4" cy="458.0" r="1.8"/><circle cx="131.9" cy="459.7" r="1.8"/><circle cx="139.7" cy="461.3" r="1.8"/><circle cx="147.7" cy="462.8" r="1.8"/><circle cx="155.9" cy="464.3" r="1.8"/><circle cx="164.3" cy="465.7" r="1.8"/><circle cx="172.9" cy="467.0" r="1.8"/><circle cx="181.7" cy="468.2" r="1.8"/><circle cx="190.6" cy="469.3" r="1.8"/><circle cx="199.8" cy="470.3" r="1.8"/><circle cx="209.0" cy="471.2" r="1.8"/><circle cx="470.5" cy="459.2" r="1.8"/><circle cx="478.0" cy="457.5" r="1.8"/><circle cx="485.1" cy="455.7" r="1.8"/><circle cx="492.1" cy="453.8" r="1.8"/><circle cx="498.7" cy="451.9" r="1.8"/><circle cx="505.1" cy="449.9" r="1.8"/><circle cx="511.1" cy="447.9" r="1.8"/><circle cx="516.9" cy="445.8" r="1.8"/><circle cx="522.3" cy="443.6" r="1.8"/><circle cx="527.4" cy="441.4" r="1.8"/><circle cx="544.6" cy="432.1" r="1.8"/><circle cx="548.0" cy="429.7" r="1.8"/><circle cx="116.5" cy="448.5" r="1.8"/><circle cx="123.8" cy="450.3" r="1.8"/><circle cx="131.4" cy="451.9" r="1.8"/><circle cx="139.2" cy="453.5" r="1.8"/><circle cx="147.3" cy="455.0" r="1.8"/><circle cx="155.5" cy="456.5" r="1.8"/><circle cx="164.0" cy="457.8" r="1.8"/><circle cx="172.6" cy="459.1" r="1.8"/><circle cx="181.4" cy="460.3" r="1.8"/><circle cx="190.4" cy="461.4" r="1.8"/><circle cx="199.6" cy="462.4" r="1.8"/><circle cx="208.8" cy="463.4" r="1.8"/><circle cx="218.3" cy="464.2" r="1.8"/><circle cx="470.8" cy="451.4" r="1.8"/><circle cx="478.3" cy="449.8" r="1.8"/><circle cx="485.6" cy="448.0" r="1.8"/><circle cx="492.6" cy="446.2" r="1.8"/><circle cx="499.3" cy="444.3" r="1.8"/><circle cx="505.8" cy="442.3" r="1.8"/><circle cx="511.9" cy="440.3" r="1.8"/><circle cx="517.8" cy="438.2" r="1.8"/><circle cx="523.4" cy="436.1" r="1.8"/><circle cx="528.6" cy="433.9" r="1.8"/><circle cx="549.9" cy="422.3" r="1.8"/><circle cx="553.2" cy="419.8" r="1.8"/><circle cx="109.4" cy="438.9" r="1.8"/><circle cx="116.6" cy="440.7" r="1.8"/><circle cx="124.0" cy="442.4" r="1.8"/><circle cx="131.7" cy="444.1" r="1.8"/><circle cx="139.5" cy="445.7" r="1.8"/><circle cx="147.6" cy="447.2" r="1.8"/><circle cx="155.9" cy="448.6" r="1.8"/><circle cx="164.4" cy="449.9" r="1.8"/><circle cx="173.1" cy="451.2" r="1.8"/><circle cx="182.0" cy="452.3" r="1.8"/><circle cx="191.0" cy="453.4" r="1.8"/><circle cx="200.2" cy="454.4" r="1.8"/><circle cx="209.5" cy="455.3" r="1.8"/><circle cx="218.9" cy="456.1" r="1.8"/><circle cx="228.5" cy="456.9" r="1.8"/><circle cx="471.8" cy="443.4" r="1.8"/><circle cx="479.3" cy="441.7" r="1.8"/><circle cx="486.6" cy="439.9" r="1.8"/><circle cx="493.7" cy="438.1" r="1.8"/><circle cx="500.5" cy="436.2" r="1.8"/><circle cx="507.0" cy="434.3" r="1.8"/><circle cx="513.2" cy="432.3" r="1.8"/><circle cx="519.1" cy="430.2" r="1.8"/><circle cx="524.8" cy="428.1" r="1.8"/><circle cx="530.1" cy="425.9" r="1.8"/><circle cx="555.3" cy="412.0" r="1.8"/><circle cx="558.3" cy="409.5" r="1.8"/><circle cx="103.1" cy="429.3" r="1.8"/><circle cx="110.1" cy="431.1" r="1.8"/><circle cx="117.4" cy="432.9" r="1.8"/><circle cx="124.9" cy="434.5" r="1.8"/><circle cx="132.6" cy="436.2" r="1.8"/><circle cx="140.6" cy="437.7" r="1.8"/><circle cx="148.8" cy="439.2" r="1.8"/><circle cx="157.2" cy="440.6" r="1.8"/><circle cx="165.7" cy="441.9" r="1.8"/><circle cx="174.5" cy="443.1" r="1.8"/><circle cx="183.4" cy="444.2" r="1.8"/><circle cx="192.4" cy="445.3" r="1.8"/><circle cx="201.7" cy="446.3" r="1.8"/><circle cx="211.0" cy="447.2" r="1.8"/><circle cx="220.5" cy="448.0" r="1.8"/><circle cx="230.0" cy="448.7" r="1.8"/><circle cx="465.6" cy="436.5" r="1.8"/><circle cx="473.4" cy="434.9" r="1.8"/><circle cx="480.9" cy="433.2" r="1.8"/><circle cx="488.2" cy="431.5" r="1.8"/><circle cx="495.3" cy="429.7" r="1.8"/><circle cx="502.1" cy="427.8" r="1.8"/><circle cx="508.6" cy="425.9" r="1.8"/><circle cx="514.9" cy="423.9" r="1.8"/><circle cx="520.9" cy="421.8" r="1.8"/><circle cx="526.6" cy="419.7" r="1.8"/><circle cx="531.9" cy="417.5" r="1.8"/><circle cx="537.0" cy="415.3" r="1.8"/><circle cx="541.8" cy="413.1" r="1.8"/><circle cx="557.5" cy="403.6" r="1.8"/><circle cx="560.6" cy="401.2" r="1.8"/><circle cx="91.0" cy="417.6" r="1.8"/><circle cx="97.6" cy="419.5" r="1.8"/><circle cx="104.5" cy="421.4" r="1.8"/><circle cx="111.6" cy="423.2" r="1.8"/><circle cx="119.0" cy="424.9" r="1.8"/><circle cx="126.6" cy="426.6" r="1.8"/><circle cx="134.4" cy="428.2" r="1.8"/><circle cx="142.5" cy="429.7" r="1.8"/><circle cx="150.7" cy="431.1" r="1.8"/><circle cx="159.2" cy="432.5" r="1.8"/><circle cx="167.8" cy="433.7" r="1.8"/><circle cx="176.6" cy="434.9" r="1.8"/><circle cx="185.6" cy="436.1" r="1.8"/><circle cx="194.7" cy="437.1" r="1.8"/><circle cx="204.0" cy="438.0" r="1.8"/><circle cx="213.4" cy="438.9" r="1.8"/><circle cx="222.9" cy="439.6" r="1.8"/><circle cx="232.5" cy="440.3" r="1.8"/><circle cx="467.8" cy="427.7" r="1.8"/><circle cx="475.6" cy="426.1" r="1.8"/><circle cx="483.1" cy="424.4" r="1.8"/><circle cx="490.4" cy="422.7" r="1.8"/><circle cx="497.5" cy="420.9" r="1.8"/><circle cx="504.3" cy="419.0" r="1.8"/><circle cx="510.8" cy="417.1" r="1.8"/><circle cx="517.1" cy="415.1" r="1.8"/><circle cx="523.1" cy="413.0" r="1.8"/><circle cx="528.8" cy="410.9" r="1.8"/><circle cx="534.1" cy="408.7" r="1.8"/><circle cx="539.2" cy="406.5" r="1.8"/><circle cx="544.0" cy="404.3" r="1.8"/><circle cx="548.4" cy="401.9" r="1.8"/><circle cx="562.9" cy="392.4" r="1.8"/><circle cx="565.7" cy="389.9" r="1.8"/><circle cx="86.3" cy="407.8" r="1.8"/><circle cx="92.8" cy="409.8" r="1.8"/><circle cx="99.5" cy="411.7" r="1.8"/><circle cx="106.5" cy="413.5" r="1.8"/><circle cx="113.8" cy="415.2" r="1.8"/><circle cx="121.3" cy="416.9" r="1.8"/><circle cx="129.0" cy="418.6" r="1.8"/><circle cx="137.0" cy="420.1" r="1.8"/><circle cx="145.1" cy="421.6" r="1.8"/><circle cx="153.5" cy="423.0" r="1.8"/><circle cx="162.0" cy="424.3" r="1.8"/><circle cx="170.8" cy="425.5" r="1.8"/><circle cx="179.6" cy="426.7" r="1.8"/><circle cx="188.7" cy="427.8" r="1.8"/><circle cx="197.9" cy="428.8" r="1.8"/><circle cx="207.2" cy="429.7" r="1.8"/><circle cx="216.6" cy="430.5" r="1.8"/><circle cx="226.2" cy="431.2" r="1.8"/><circle cx="470.8" cy="418.6" r="1.8"/><circle cx="478.5" cy="417.0" r="1.8"/><circle cx="486.0" cy="415.3" r="1.8"/><circle cx="493.3" cy="413.5" r="1.8"/><circle cx="500.3" cy="411.7" r="1.8"/><circle cx="507.0" cy="409.8" r="1.8"/><circle cx="513.5" cy="407.9" r="1.8"/><circle cx="519.8" cy="405.9" r="1.8"/><circle cx="525.7" cy="403.8" r="1.8"/><circle cx="531.3" cy="401.7" r="1.8"/><circle cx="536.7" cy="399.5" r="1.8"/><circle cx="541.8" cy="397.3" r="1.8"/><circle cx="546.5" cy="395.0" r="1.8"/><circle cx="550.9" cy="392.7" r="1.8"/><circle cx="82.3" cy="398.0" r="1.8"/><circle cx="88.7" cy="400.0" r="1.8"/><circle cx="95.3" cy="401.9" r="1.8"/><circle cx="102.3" cy="403.7" r="1.8"/><circle cx="109.4" cy="405.5" r="1.8"/><circle cx="116.8" cy="407.3" r="1.8"/><circle cx="124.4" cy="408.9" r="1.8"/><circle cx="132.3" cy="410.5" r="1.8"/><circle cx="140.4" cy="412.0" r="1.8"/><circle cx="148.6" cy="413.4" r="1.8"/><circle cx="157.1" cy="414.8" r="1.8"/><circle cx="165.7" cy="416.1" r="1.8"/><circle cx="174.6" cy="417.2" r="1.8"/><circle cx="183.5" cy="418.4" r="1.8"/><circle cx="192.6" cy="419.4" r="1.8"/><circle cx="201.9" cy="420.3" r="1.8"/><circle cx="211.3" cy="421.2" r="1.8"/><circle cx="220.8" cy="422.0" r="1.8"/><circle cx="230.3" cy="422.7" r="1.8"/><circle cx="240.0" cy="423.3" r="1.8"/><circle cx="482.0" cy="407.5" r="1.8"/><circle cx="489.5" cy="405.8" r="1.8"/><circle cx="496.7" cy="404.0" r="1.8"/><circle cx="503.6" cy="402.2" r="1.8"/><circle cx="510.3" cy="400.3" r="1.8"/><circle cx="516.7" cy="398.3" r="1.8"/><circle cx="522.9" cy="396.3" r="1.8"/><circle cx="528.8" cy="394.2" r="1.8"/><circle cx="534.3" cy="392.1" r="1.8"/><circle cx="539.6" cy="389.9" r="1.8"/><circle cx="544.6" cy="387.7" r="1.8"/><circle cx="549.3" cy="385.4" r="1.8"/><circle cx="553.6" cy="383.1" r="1.8"/><circle cx="79.0" cy="388.2" r="1.8"/><circle cx="85.3" cy="390.2" r="1.8"/><circle cx="91.9" cy="392.1" r="1.8"/><circle cx="98.7" cy="394.0" r="1.8"/><circle cx="105.8" cy="395.8" r="1.8"/><circle cx="113.1" cy="397.5" r="1.8"/><circle cx="120.7" cy="399.2" r="1.8"/><circle cx="128.4" cy="400.8" r="1.8"/><circle cx="136.4" cy="402.4" r="1.8"/><circle cx="144.6" cy="403.8" r="1.8"/><circle cx="153.0" cy="405.2" r="1.8"/><circle cx="161.6" cy="406.5" r="1.8"/><circle cx="170.3" cy="407.7" r="1.8"/><circle cx="179.2" cy="408.9" r="1.8"/><circle cx="188.3" cy="409.9" r="1.8"/><circle cx="197.5" cy="410.9" r="1.8"/><circle cx="206.8" cy="411.8" r="1.8"/><circle cx="216.3" cy="412.6" r="1.8"/><circle cx="225.8" cy="413.3" r="1.8"/><circle cx="235.5" cy="414.0" r="1.8"/><circle cx="245.2" cy="414.5" r="1.8"/><circle cx="478.6" cy="399.4" r="1.8"/><circle cx="486.2" cy="397.7" r="1.8"/><circle cx="493.6" cy="396.0" r="1.8"/><circle cx="500.7" cy="394.2" r="1.8"/><circle cx="507.5" cy="392.3" r="1.8"/><circle cx="514.1" cy="390.4" r="1.8"/><circle cx="520.4" cy="388.4" r="1.8"/><circle cx="526.5" cy="386.3" r="1.8"/><circle cx="532.2" cy="384.2" r="1.8"/><circle cx="537.7" cy="382.1" r="1.8"/><circle cx="542.9" cy="379.9" r="1.8"/><circle cx="547.8" cy="377.6" r="1.8"/><circle cx="552.3" cy="375.4" r="1.8"/><circle cx="70.4" cy="376.3" r="1.8"/><circle cx="76.4" cy="378.4" r="1.8"/><circle cx="82.6" cy="380.4" r="1.8"/><circle cx="89.1" cy="382.3" r="1.8"/><circle cx="95.9" cy="384.2" r="1.8"/><circle cx="102.9" cy="386.1" r="1.8"/><circle cx="110.1" cy="387.8" r="1.8"/><circle cx="117.6" cy="389.5" r="1.8"/><circle cx="125.3" cy="391.1" r="1.8"/><circle cx="133.3" cy="392.7" r="1.8"/><circle cx="141.4" cy="394.2" r="1.8"/><circle cx="149.7" cy="395.6" r="1.8"/><circle cx="158.3" cy="396.9" r="1.8"/><circle cx="167.0" cy="398.2" r="1.8"/><circle cx="175.8" cy="399.3" r="1.8"/><circle cx="184.8" cy="400.4" r="1.8"/><circle cx="194.0" cy="401.4" r="1.8"/><circle cx="203.3" cy="402.4" r="1.8"/><circle cx="212.7" cy="403.2" r="1.8"/><circle cx="222.2" cy="403.9" r="1.8"/><circle cx="231.8" cy="404.6" r="1.8"/><circle cx="241.5" cy="405.2" r="1.8"/><circle cx="251.3" cy="405.7" r="1.8"/><circle cx="475.9" cy="390.9" r="1.8"/><circle cx="483.6" cy="389.3" r="1.8"/><circle cx="491.0" cy="387.6" r="1.8"/><circle cx="498.2" cy="385.8" r="1.8"/><circle cx="505.2" cy="383.9" r="1.8"/><circle cx="511.9" cy="382.0" r="1.8"/><circle cx="518.4" cy="380.1" r="1.8"/><circle cx="524.6" cy="378.1" r="1.8"/><circle cx="530.5" cy="376.0" r="1.8"/><circle cx="536.1" cy="373.9" r="1.8"/><circle cx="541.4" cy="371.7" r="1.8"/><circle cx="546.5" cy="369.5" r="1.8"/><circle cx="551.2" cy="367.2" r="1.8"/><circle cx="68.5" cy="366.5" r="1.8"/><circle cx="74.4" cy="368.6" r="1.8"/><circle cx="80.6" cy="370.6" r="1.8"/><circle cx="87.0" cy="372.6" r="1.8"/><circle cx="93.8" cy="374.5" r="1.8"/><circle cx="100.7" cy="376.3" r="1.8"/><circle cx="107.9" cy="378.1" r="1.8"/><circle cx="115.4" cy="379.8" r="1.8"/><circle cx="123.0" cy="381.5" r="1.8"/><circle cx="130.9" cy="383.0" r="1.8"/><circle cx="139.0" cy="384.5" r="1.8"/><circle cx="147.3" cy="385.9" r="1.8"/><circle cx="155.8" cy="387.3" r="1.8"/><circle cx="164.4" cy="388.6" r="1.8"/><circle cx="173.3" cy="389.7" r="1.8"/><circle cx="182.2" cy="390.9" r="1.8"/><circle cx="191.4" cy="391.9" r="1.8"/><circle cx="200.6" cy="392.8" r="1.8"/><circle cx="210.0" cy="393.7" r="1.8"/><circle cx="219.5" cy="394.5" r="1.8"/><circle cx="229.1" cy="395.1" r="1.8"/><circle cx="238.8" cy="395.7" r="1.8"/><circle cx="473.8" cy="382.1" r="1.8"/><circle cx="481.5" cy="380.5" r="1.8"/><circle cx="489.0" cy="378.8" r="1.8"/><circle cx="496.4" cy="377.1" r="1.8"/><circle cx="503.4" cy="375.3" r="1.8"/><circle cx="510.2" cy="373.4" r="1.8"/><circle cx="516.8" cy="371.4" r="1.8"/><circle cx="523.1" cy="369.4" r="1.8"/><circle cx="529.1" cy="367.4" r="1.8"/><circle cx="534.8" cy="365.3" r="1.8"/><circle cx="540.3" cy="363.1" r="1.8"/><circle cx="545.4" cy="360.9" r="1.8"/><circle cx="550.3" cy="358.7" r="1.8"/><circle cx="554.8" cy="356.4" r="1.8"/><circle cx="67.3" cy="356.8" r="1.8"/><circle cx="73.1" cy="358.9" r="1.8"/><circle cx="79.3" cy="360.9" r="1.8"/><circle cx="85.7" cy="362.9" r="1.8"/><circle cx="92.4" cy="364.8" r="1.8"/><circle cx="99.3" cy="366.6" r="1.8"/><circle cx="106.5" cy="368.4" r="1.8"/><circle cx="113.9" cy="370.1" r="1.8"/><circle cx="121.5" cy="371.8" r="1.8"/><circle cx="129.4" cy="373.4" r="1.8"/><circle cx="137.4" cy="374.9" r="1.8"/><circle cx="145.7" cy="376.3" r="1.8"/><circle cx="154.1" cy="377.7" r="1.8"/><circle cx="162.8" cy="378.9" r="1.8"/><circle cx="171.6" cy="380.1" r="1.8"/><circle cx="180.5" cy="381.3" r="1.8"/><circle cx="189.6" cy="382.3" r="1.8"/><circle cx="198.9" cy="383.3" r="1.8"/><circle cx="208.2" cy="384.1" r="1.8"/><circle cx="217.7" cy="384.9" r="1.8"/><circle cx="227.3" cy="385.6" r="1.8"/><circle cx="464.3" cy="374.6" r="1.8"/><circle cx="472.3" cy="373.0" r="1.8"/><circle cx="480.1" cy="371.4" r="1.8"/><circle cx="487.7" cy="369.8" r="1.8"/><circle cx="495.1" cy="368.0" r="1.8"/><circle cx="502.2" cy="366.2" r="1.8"/><circle cx="509.1" cy="364.4" r="1.8"/><circle cx="515.7" cy="362.5" r="1.8"/><circle cx="522.1" cy="360.5" r="1.8"/><circle cx="528.1" cy="358.4" r="1.8"/><circle cx="534.0" cy="356.4" r="1.8"/><circle cx="539.5" cy="354.2" r="1.8"/><circle cx="544.7" cy="352.0" r="1.8"/><circle cx="549.6" cy="349.8" r="1.8"/><circle cx="554.3" cy="347.5" r="1.8"/><circle cx="66.6" cy="347.1" r="1.8"/><circle cx="72.5" cy="349.2" r="1.8"/><circle cx="78.6" cy="351.2" r="1.8"/><circle cx="85.0" cy="353.2" r="1.8"/><circle cx="91.7" cy="355.1" r="1.8"/><circle cx="98.6" cy="357.0" r="1.8"/><circle cx="105.7" cy="358.8" r="1.8"/><circle cx="113.1" cy="360.5" r="1.8"/><circle cx="120.7" cy="362.1" r="1.8"/><circle cx="128.6" cy="363.7" r="1.8"/><circle cx="136.6" cy="365.2" r="1.8"/><circle cx="144.9" cy="366.7" r="1.8"/><circle cx="153.3" cy="368.0" r="1.8"/><circle cx="161.9" cy="369.3" r="1.8"/><circle cx="170.7" cy="370.5" r="1.8"/><circle cx="179.7" cy="371.7" r="1.8"/><circle cx="188.8" cy="372.7" r="1.8"/><circle cx="463.6" cy="365.2" r="1.8"/><circle cx="471.6" cy="363.7" r="1.8"/><circle cx="479.4" cy="362.1" r="1.8"/><circle cx="487.1" cy="360.4" r="1.8"/><circle cx="494.4" cy="358.7" r="1.8"/><circle cx="501.6" cy="356.9" r="1.8"/><circle cx="508.5" cy="355.1" r="1.8"/><circle cx="515.2" cy="353.2" r="1.8"/><circle cx="521.6" cy="351.2" r="1.8"/><circle cx="527.7" cy="349.2" r="1.8"/><circle cx="533.5" cy="347.1" r="1.8"/><circle cx="539.1" cy="344.9" r="1.8"/><circle cx="544.3" cy="342.8" r="1.8"/><circle cx="549.3" cy="340.5" r="1.8"/><circle cx="554.0" cy="338.2" r="1.8"/><circle cx="558.3" cy="335.9" r="1.8"/><circle cx="72.5" cy="339.6" r="1.8"/><circle cx="78.6" cy="341.6" r="1.8"/><circle cx="85.0" cy="343.6" r="1.8"/><circle cx="91.7" cy="345.5" r="1.8"/><circle cx="98.6" cy="347.4" r="1.8"/><circle cx="105.7" cy="349.1" r="1.8"/><circle cx="113.1" cy="350.9" r="1.8"/><circle cx="120.7" cy="352.5" r="1.8"/><circle cx="128.6" cy="354.1" r="1.8"/><circle cx="136.6" cy="355.6" r="1.8"/><circle cx="144.9" cy="357.1" r="1.8"/><circle cx="153.3" cy="358.4" r="1.8"/><circle cx="161.9" cy="359.7" r="1.8"/><circle cx="170.7" cy="360.9" r="1.8"/><circle cx="463.6" cy="355.6" r="1.8"/><circle cx="471.6" cy="354.1" r="1.8"/><circle cx="479.4" cy="352.5" r="1.8"/><circle cx="487.1" cy="350.8" r="1.8"/><circle cx="494.4" cy="349.1" r="1.8"/><circle cx="501.6" cy="347.3" r="1.8"/><circle cx="508.5" cy="345.5" r="1.8"/><circle cx="515.2" cy="343.6" r="1.8"/><circle cx="521.6" cy="341.6" r="1.8"/><circle cx="527.7" cy="339.5" r="1.8"/><circle cx="533.5" cy="337.5" r="1.8"/><circle cx="539.1" cy="335.3" r="1.8"/><circle cx="544.3" cy="333.1" r="1.8"/><circle cx="549.3" cy="330.9" r="1.8"/><circle cx="554.0" cy="328.6" r="1.8"/><circle cx="558.3" cy="326.3" r="1.8"/><circle cx="562.4" cy="324.0" r="1.8"/><circle cx="79.3" cy="332.1" r="1.8"/><circle cx="85.7" cy="334.1" r="1.8"/><circle cx="92.4" cy="336.0" r="1.8"/><circle cx="99.3" cy="337.8" r="1.8"/><circle cx="106.5" cy="339.6" r="1.8"/><circle cx="113.9" cy="341.3" r="1.8"/><circle cx="121.5" cy="343.0" r="1.8"/><circle cx="129.4" cy="344.5" r="1.8"/><circle cx="137.4" cy="346.1" r="1.8"/><circle cx="145.7" cy="347.5" r="1.8"/><circle cx="154.1" cy="348.8" r="1.8"/><circle cx="162.8" cy="350.1" r="1.8"/><circle cx="171.6" cy="351.3" r="1.8"/><circle cx="464.3" cy="345.7" r="1.8"/><circle cx="472.3" cy="344.2" r="1.8"/><circle cx="480.1" cy="342.6" r="1.8"/><circle cx="487.7" cy="341.0" r="1.8"/><circle cx="495.1" cy="339.2" r="1.8"/><circle cx="502.2" cy="337.4" r="1.8"/><circle cx="509.1" cy="335.6" r="1.8"/><circle cx="515.7" cy="333.6" r="1.8"/><circle cx="522.1" cy="331.7" r="1.8"/><circle cx="528.1" cy="329.6" r="1.8"/><circle cx="534.0" cy="327.5" r="1.8"/><circle cx="539.5" cy="325.4" r="1.8"/><circle cx="544.7" cy="323.2" r="1.8"/><circle cx="549.6" cy="321.0" r="1.8"/><circle cx="554.3" cy="318.7" r="1.8"/><circle cx="558.6" cy="316.4" r="1.8"/><circle cx="562.6" cy="314.0" r="1.8"/><circle cx="566.2" cy="311.6" r="1.8"/><circle cx="569.6" cy="309.2" r="1.8"/><circle cx="80.6" cy="322.6" r="1.8"/><circle cx="87.0" cy="324.6" r="1.8"/><circle cx="93.8" cy="326.5" r="1.8"/><circle cx="100.7" cy="328.3" r="1.8"/><circle cx="107.9" cy="330.1" r="1.8"/><circle cx="115.4" cy="331.8" r="1.8"/><circle cx="123.0" cy="333.5" r="1.8"/><circle cx="130.9" cy="335.0" r="1.8"/><circle cx="139.0" cy="336.5" r="1.8"/><circle cx="147.3" cy="338.0" r="1.8"/><circle cx="155.8" cy="339.3" r="1.8"/><circle cx="164.4" cy="340.6" r="1.8"/><circle cx="386.1" cy="346.0" r="1.8"/><circle cx="404.8" cy="344.3" r="1.8"/><circle cx="414.0" cy="343.3" r="1.8"/><circle cx="449.2" cy="338.5" r="1.8"/><circle cx="457.6" cy="337.1" r="1.8"/><circle cx="465.8" cy="335.7" r="1.8"/><circle cx="473.8" cy="334.1" r="1.8"/><circle cx="481.5" cy="332.5" r="1.8"/><circle cx="489.0" cy="330.8" r="1.8"/><circle cx="496.4" cy="329.1" r="1.8"/><circle cx="503.4" cy="327.3" r="1.8"/><circle cx="510.2" cy="325.4" r="1.8"/><circle cx="516.8" cy="323.5" r="1.8"/><circle cx="523.1" cy="321.5" r="1.8"/><circle cx="529.1" cy="319.4" r="1.8"/><circle cx="534.8" cy="317.3" r="1.8"/><circle cx="540.3" cy="315.2" r="1.8"/><circle cx="545.4" cy="313.0" r="1.8"/><circle cx="550.3" cy="310.7" r="1.8"/><circle cx="554.8" cy="308.4" r="1.8"/><circle cx="559.0" cy="306.1" r="1.8"/><circle cx="563.0" cy="303.7" r="1.8"/><circle cx="566.5" cy="301.3" r="1.8"/><circle cx="569.8" cy="298.9" r="1.8"/><circle cx="76.4" cy="311.3" r="1.8"/><circle cx="82.6" cy="313.3" r="1.8"/><circle cx="89.1" cy="315.2" r="1.8"/><circle cx="95.9" cy="317.1" r="1.8"/><circle cx="102.9" cy="319.0" r="1.8"/><circle cx="110.1" cy="320.7" r="1.8"/><circle cx="117.6" cy="322.4" r="1.8"/><circle cx="125.3" cy="324.0" r="1.8"/><circle cx="133.3" cy="325.6" r="1.8"/><circle cx="141.4" cy="327.1" r="1.8"/><circle cx="369.7" cy="337.4" r="1.8"/><circle cx="379.3" cy="336.7" r="1.8"/><circle cx="388.8" cy="336.0" r="1.8"/><circle cx="398.2" cy="335.1" r="1.8"/><circle cx="407.4" cy="334.2" r="1.8"/><circle cx="416.6" cy="333.2" r="1.8"/><circle cx="425.6" cy="332.1" r="1.8"/><circle cx="434.4" cy="330.9" r="1.8"/><circle cx="443.1" cy="329.6" r="1.8"/><circle cx="451.6" cy="328.3" r="1.8"/><circle cx="459.9" cy="326.9" r="1.8"/><circle cx="468.0" cy="325.4" r="1.8"/><circle cx="475.9" cy="323.8" r="1.8"/><circle cx="483.6" cy="322.2" r="1.8"/><circle cx="491.0" cy="320.5" r="1.8"/><circle cx="498.2" cy="318.7" r="1.8"/><circle cx="505.2" cy="316.8" r="1.8"/><circle cx="511.9" cy="314.9" r="1.8"/><circle cx="518.4" cy="313.0" r="1.8"/><circle cx="524.6" cy="311.0" r="1.8"/><circle cx="530.5" cy="308.9" r="1.8"/><circle cx="536.1" cy="306.8" r="1.8"/><circle cx="541.4" cy="304.6" r="1.8"/><circle cx="546.5" cy="302.4" r="1.8"/><circle cx="551.2" cy="300.1" r="1.8"/><circle cx="555.6" cy="297.8" r="1.8"/><circle cx="559.7" cy="295.5" r="1.8"/><circle cx="563.5" cy="293.1" r="1.8"/><circle cx="566.9" cy="290.7" r="1.8"/><circle cx="570.1" cy="288.2" r="1.8"/><circle cx="61.8" cy="295.8" r="1.8"/><circle cx="73.0" cy="300.0" r="1.8"/><circle cx="85.3" cy="304.1" r="1.8"/><circle cx="91.9" cy="306.0" r="1.8"/><circle cx="98.7" cy="307.9" r="1.8"/><circle cx="105.8" cy="309.7" r="1.8"/><circle cx="113.1" cy="311.4" r="1.8"/><circle cx="120.7" cy="313.1" r="1.8"/><circle cx="128.4" cy="314.7" r="1.8"/><circle cx="363.7" cy="327.9" r="1.8"/><circle cx="373.3" cy="327.3" r="1.8"/><circle cx="382.9" cy="326.6" r="1.8"/><circle cx="392.3" cy="325.8" r="1.8"/><circle cx="401.7" cy="324.9" r="1.8"/><circle cx="410.9" cy="323.9" r="1.8"/><circle cx="419.9" cy="322.8" r="1.8"/><circle cx="428.9" cy="321.7" r="1.8"/><circle cx="437.6" cy="320.5" r="1.8"/><circle cx="446.2" cy="319.2" r="1.8"/><circle cx="454.6" cy="317.8" r="1.8"/><circle cx="462.8" cy="316.4" r="1.8"/><circle cx="470.8" cy="314.8" r="1.8"/><circle cx="478.6" cy="313.2" r="1.8"/><circle cx="486.2" cy="311.6" r="1.8"/><circle cx="493.6" cy="309.8" r="1.8"/><circle cx="500.7" cy="308.0" r="1.8"/><circle cx="507.5" cy="306.2" r="1.8"/><circle cx="514.1" cy="304.2" r="1.8"/><circle cx="520.4" cy="302.2" r="1.8"/><circle cx="526.5" cy="300.2" r="1.8"/><circle cx="532.2" cy="298.1" r="1.8"/><circle cx="537.7" cy="296.0" r="1.8"/><circle cx="542.9" cy="293.8" r="1.8"/><circle cx="547.8" cy="291.5" r="1.8"/><circle cx="552.3" cy="289.2" r="1.8"/><circle cx="556.6" cy="286.9" r="1.8"/><circle cx="560.5" cy="284.5" r="1.8"/><circle cx="564.1" cy="282.1" r="1.8"/><circle cx="567.4" cy="279.7" r="1.8"/><circle cx="570.3" cy="277.2" r="1.8"/><circle cx="59.6" cy="284.5" r="1.8"/><circle cx="88.7" cy="294.9" r="1.8"/><circle cx="95.3" cy="296.8" r="1.8"/><circle cx="102.3" cy="298.7" r="1.8"/><circle cx="348.7" cy="318.8" r="1.8"/><circle cx="358.5" cy="318.3" r="1.8"/><circle cx="368.2" cy="317.7" r="1.8"/><circle cx="377.8" cy="317.0" r="1.8"/><circle cx="387.3" cy="316.3" r="1.8"/><circle cx="396.7" cy="315.4" r="1.8"/><circle cx="406.0" cy="314.5" r="1.8"/><circle cx="415.1" cy="313.5" r="1.8"/><circle cx="424.1" cy="312.4" r="1.8"/><circle cx="432.9" cy="311.2" r="1.8"/><circle cx="441.6" cy="309.9" r="1.8"/><circle cx="450.1" cy="308.6" r="1.8"/><circle cx="458.4" cy="307.2" r="1.8"/><circle cx="466.5" cy="305.7" r="1.8"/><circle cx="474.4" cy="304.1" r="1.8"/><circle cx="482.0" cy="302.5" r="1.8"/><circle cx="489.5" cy="300.7" r="1.8"/><circle cx="496.7" cy="299.0" r="1.8"/><circle cx="503.6" cy="297.1" r="1.8"/><circle cx="510.3" cy="295.2" r="1.8"/><circle cx="516.7" cy="293.3" r="1.8"/><circle cx="522.9" cy="291.2" r="1.8"/><circle cx="528.8" cy="289.2" r="1.8"/><circle cx="534.3" cy="287.0" r="1.8"/><circle cx="539.6" cy="284.8" r="1.8"/><circle cx="544.6" cy="282.6" r="1.8"/><circle cx="549.3" cy="280.3" r="1.8"/><circle cx="553.6" cy="278.0" r="1.8"/><circle cx="557.7" cy="275.7" r="1.8"/><circle cx="567.8" cy="268.4" r="1.8"/><circle cx="570.5" cy="265.9" r="1.8"/><circle cx="58.1" cy="273.4" r="1.8"/><circle cx="63.2" cy="275.6" r="1.8"/><circle cx="344.4" cy="309.0" r="1.8"/><circle cx="354.2" cy="308.6" r="1.8"/><circle cx="363.9" cy="308.0" r="1.8"/><circle cx="373.6" cy="307.4" r="1.8"/><circle cx="383.1" cy="306.7" r="1.8"/><circle cx="392.6" cy="305.8" r="1.8"/><circle cx="401.9" cy="304.9" r="1.8"/><circle cx="411.1" cy="303.9" r="1.8"/><circle cx="420.1" cy="302.9" r="1.8"/><circle cx="429.0" cy="301.7" r="1.8"/><circle cx="437.7" cy="300.5" r="1.8"/><circle cx="446.3" cy="299.2" r="1.8"/><circle cx="454.6" cy="297.8" r="1.8"/><circle cx="462.8" cy="296.3" r="1.8"/><circle cx="470.8" cy="294.8" r="1.8"/><circle cx="478.5" cy="293.1" r="1.8"/><circle cx="486.0" cy="291.4" r="1.8"/><circle cx="493.3" cy="289.7" r="1.8"/><circle cx="500.3" cy="287.9" r="1.8"/><circle cx="507.0" cy="286.0" r="1.8"/><circle cx="513.5" cy="284.0" r="1.8"/><circle cx="519.8" cy="282.0" r="1.8"/><circle cx="525.7" cy="279.9" r="1.8"/><circle cx="531.3" cy="277.8" r="1.8"/><circle cx="536.7" cy="275.7" r="1.8"/><circle cx="541.8" cy="273.4" r="1.8"/><circle cx="546.5" cy="271.2" r="1.8"/><circle cx="550.9" cy="268.9" r="1.8"/><circle cx="555.0" cy="266.5" r="1.8"/><circle cx="558.8" cy="264.1" r="1.8"/><circle cx="48.6" cy="257.8" r="1.8"/><circle cx="52.8" cy="260.1" r="1.8"/><circle cx="57.3" cy="262.4" r="1.8"/><circle cx="62.2" cy="264.6" r="1.8"/><circle cx="341.0" cy="299.2" r="1.8"/><circle cx="350.8" cy="298.8" r="1.8"/><circle cx="360.6" cy="298.3" r="1.8"/><circle cx="370.3" cy="297.6" r="1.8"/><circle cx="379.8" cy="296.9" r="1.8"/><circle cx="389.3" cy="296.1" r="1.8"/><circle cx="398.6" cy="295.3" r="1.8"/><circle cx="407.9" cy="294.3" r="1.8"/><circle cx="416.9" cy="293.3" r="1.8"/><circle cx="425.9" cy="292.1" r="1.8"/><circle cx="434.6" cy="290.9" r="1.8"/><circle cx="443.2" cy="289.6" r="1.8"/><circle cx="451.6" cy="288.2" r="1.8"/><circle cx="459.8" cy="286.8" r="1.8"/><circle cx="467.8" cy="285.2" r="1.8"/><circle cx="475.6" cy="283.6" r="1.8"/><circle cx="483.1" cy="281.9" r="1.8"/><circle cx="490.4" cy="280.2" r="1.8"/><circle cx="497.5" cy="278.4" r="1.8"/><circle cx="504.3" cy="276.5" r="1.8"/><circle cx="510.8" cy="274.6" r="1.8"/><circle cx="517.1" cy="272.6" r="1.8"/><circle cx="523.1" cy="270.5" r="1.8"/><circle cx="528.8" cy="268.4" r="1.8"/><circle cx="534.1" cy="266.2" r="1.8"/><circle cx="539.2" cy="264.0" r="1.8"/><circle cx="544.0" cy="261.8" r="1.8"/><circle cx="548.4" cy="259.4" r="1.8"/><circle cx="556.3" cy="254.7" r="1.8"/><circle cx="559.8" cy="252.3" r="1.8"/><circle cx="562.9" cy="249.9" r="1.8"/><circle cx="565.7" cy="247.4" r="1.8"/><circle cx="38.8" cy="239.6" r="1.8"/><circle cx="41.8" cy="242.1" r="1.8"/><circle cx="45.1" cy="244.5" r="1.8"/><circle cx="48.8" cy="246.9" r="1.8"/><circle cx="52.8" cy="249.2" r="1.8"/><circle cx="348.4" cy="288.9" r="1.8"/><circle cx="358.1" cy="288.4" r="1.8"/><circle cx="367.8" cy="287.8" r="1.8"/><circle cx="377.4" cy="287.2" r="1.8"/><circle cx="386.9" cy="286.4" r="1.8"/><circle cx="396.2" cy="285.5" r="1.8"/><circle cx="405.5" cy="284.6" r="1.8"/><circle cx="414.6" cy="283.5" r="1.8"/><circle cx="423.5" cy="282.4" r="1.8"/><circle cx="432.3" cy="281.2" r="1.8"/><circle cx="440.9" cy="279.9" r="1.8"/><circle cx="449.3" cy="278.5" r="1.8"/><circle cx="457.6" cy="277.1" r="1.8"/><circle cx="465.6" cy="275.5" r="1.8"/><circle cx="473.4" cy="273.9" r="1.8"/><circle cx="480.9" cy="272.3" r="1.8"/><circle cx="488.2" cy="270.5" r="1.8"/><circle cx="495.3" cy="268.7" r="1.8"/><circle cx="502.1" cy="266.8" r="1.8"/><circle cx="508.6" cy="264.9" r="1.8"/><circle cx="514.9" cy="262.9" r="1.8"/><circle cx="520.9" cy="260.8" r="1.8"/><circle cx="526.6" cy="258.7" r="1.8"/><circle cx="531.9" cy="256.6" r="1.8"/><circle cx="537.0" cy="254.3" r="1.8"/><circle cx="541.8" cy="252.1" r="1.8"/><circle cx="554.1" cy="245.0" r="1.8"/><circle cx="557.5" cy="242.6" r="1.8"/><circle cx="560.6" cy="240.2" r="1.8"/><circle cx="563.3" cy="237.7" r="1.8"/><circle cx="565.7" cy="235.2" r="1.8"/><circle cx="35.6" cy="223.9" r="1.8"/><circle cx="37.7" cy="226.4" r="1.8"/><circle cx="40.2" cy="228.9" r="1.8"/><circle cx="43.0" cy="231.3" r="1.8"/><circle cx="53.5" cy="238.6" r="1.8"/><circle cx="57.7" cy="240.9" r="1.8"/><circle cx="102.5" cy="257.8" r="1.8"/><circle cx="109.4" cy="259.7" r="1.8"/><circle cx="346.7" cy="279.1" r="1.8"/><circle cx="356.5" cy="278.6" r="1.8"/><circle cx="366.2" cy="278.0" r="1.8"/><circle cx="375.8" cy="277.3" r="1.8"/><circle cx="385.3" cy="276.5" r="1.8"/><circle cx="394.7" cy="275.7" r="1.8"/><circle cx="403.9" cy="274.7" r="1.8"/><circle cx="413.0" cy="273.7" r="1.8"/><circle cx="422.0" cy="272.6" r="1.8"/><circle cx="430.7" cy="271.4" r="1.8"/><circle cx="439.4" cy="270.1" r="1.8"/><circle cx="447.8" cy="268.7" r="1.8"/><circle cx="456.0" cy="267.2" r="1.8"/><circle cx="464.0" cy="265.7" r="1.8"/><circle cx="471.8" cy="264.1" r="1.8"/><circle cx="479.3" cy="262.4" r="1.8"/><circle cx="486.6" cy="260.7" r="1.8"/><circle cx="493.7" cy="258.9" r="1.8"/><circle cx="500.5" cy="257.0" r="1.8"/><circle cx="507.0" cy="255.0" r="1.8"/><circle cx="513.2" cy="253.0" r="1.8"/><circle cx="519.1" cy="251.0" r="1.8"/><circle cx="524.8" cy="248.8" r="1.8"/><circle cx="530.1" cy="246.7" r="1.8"/><circle cx="535.1" cy="244.4" r="1.8"/><circle cx="548.2" cy="237.5" r="1.8"/><circle cx="551.9" cy="235.1" r="1.8"/><circle cx="555.3" cy="232.7" r="1.8"/><circle cx="558.3" cy="230.2" r="1.8"/><circle cx="561.0" cy="227.8" r="1.8"/><circle cx="563.3" cy="225.3" r="1.8"/><circle cx="565.2" cy="222.7" r="1.8"/><circle cx="566.8" cy="220.2" r="1.8"/><circle cx="38.0" cy="213.3" r="1.8"/><circle cx="39.9" cy="215.8" r="1.8"/><circle cx="42.1" cy="218.3" r="1.8"/><circle cx="44.8" cy="220.8" r="1.8"/><circle cx="58.8" cy="230.4" r="1.8"/><circle cx="63.2" cy="232.7" r="1.8"/><circle cx="89.8" cy="243.6" r="1.8"/><circle cx="346.0" cy="269.2" r="1.8"/><circle cx="355.8" cy="268.7" r="1.8"/><circle cx="365.5" cy="268.1" r="1.8"/><circle cx="375.0" cy="267.4" r="1.8"/><circle cx="384.5" cy="266.6" r="1.8"/><circle cx="393.9" cy="265.8" r="1.8"/><circle cx="403.1" cy="264.8" r="1.8"/><circle cx="412.2" cy="263.8" r="1.8"/><circle cx="421.2" cy="262.7" r="1.8"/><circle cx="430.0" cy="261.4" r="1.8"/><circle cx="438.5" cy="260.1" r="1.8"/><circle cx="446.9" cy="258.8" r="1.8"/><circle cx="455.1" cy="257.3" r="1.8"/><circle cx="463.1" cy="255.8" r="1.8"/><circle cx="470.8" cy="254.1" r="1.8"/><circle cx="478.3" cy="252.4" r="1.8"/><circle cx="485.6" cy="250.7" r="1.8"/><circle cx="492.6" cy="248.9" r="1.8"/><circle cx="499.3" cy="247.0" r="1.8"/><circle cx="505.8" cy="245.0" r="1.8"/><circle cx="511.9" cy="243.0" r="1.8"/><circle cx="517.8" cy="240.9" r="1.8"/><circle cx="523.4" cy="238.8" r="1.8"/><circle cx="528.6" cy="236.6" r="1.8"/><circle cx="533.5" cy="234.3" r="1.8"/><circle cx="542.4" cy="229.7" r="1.8"/><circle cx="546.3" cy="227.4" r="1.8"/><circle cx="549.9" cy="225.0" r="1.8"/><circle cx="553.2" cy="222.5" r="1.8"/><circle cx="556.0" cy="220.1" r="1.8"/><circle cx="558.6" cy="217.6" r="1.8"/><circle cx="560.7" cy="215.1" r="1.8"/><circle cx="562.5" cy="212.5" r="1.8"/><circle cx="564.0" cy="210.0" r="1.8"/><circle cx="564.8" cy="194.6" r="1.8"/><circle cx="40.8" cy="202.9" r="1.8"/><circle cx="42.5" cy="205.4" r="1.8"/><circle cx="44.6" cy="208.0" r="1.8"/><circle cx="47.1" cy="210.5" r="1.8"/><circle cx="79.4" cy="229.2" r="1.8"/><circle cx="346.1" cy="259.3" r="1.8"/><circle cx="355.9" cy="258.8" r="1.8"/><circle cx="365.6" cy="258.2" r="1.8"/><circle cx="375.1" cy="257.5" r="1.8"/><circle cx="384.6" cy="256.7" r="1.8"/><circle cx="394.0" cy="255.8" r="1.8"/><circle cx="403.2" cy="254.9" r="1.8"/><circle cx="412.3" cy="253.8" r="1.8"/><circle cx="421.2" cy="252.7" r="1.8"/><circle cx="429.9" cy="251.4" r="1.8"/><circle cx="438.5" cy="250.1" r="1.8"/><circle cx="446.8" cy="248.7" r="1.8"/><circle cx="454.9" cy="247.2" r="1.8"/><circle cx="462.9" cy="245.7" r="1.8"/><circle cx="470.5" cy="244.0" r="1.8"/><circle cx="478.0" cy="242.3" r="1.8"/><circle cx="485.1" cy="240.5" r="1.8"/><circle cx="492.1" cy="238.7" r="1.8"/><circle cx="498.7" cy="236.8" r="1.8"/><circle cx="505.1" cy="234.8" r="1.8"/><circle cx="511.1" cy="232.7" r="1.8"/><circle cx="516.9" cy="230.6" r="1.8"/><circle cx="522.3" cy="228.5" r="1.8"/><circle cx="527.4" cy="226.3" r="1.8"/><circle cx="536.7" cy="221.7" r="1.8"/><circle cx="540.8" cy="219.4" r="1.8"/><circle cx="544.6" cy="217.0" r="1.8"/><circle cx="548.0" cy="214.6" r="1.8"/><circle cx="551.1" cy="212.1" r="1.8"/><circle cx="553.8" cy="209.7" r="1.8"/><circle cx="556.1" cy="207.2" r="1.8"/><circle cx="558.1" cy="204.6" r="1.8"/><circle cx="559.7" cy="202.1" r="1.8"/><circle cx="560.9" cy="199.5" r="1.8"/><circle cx="561.4" cy="186.7" r="1.8"/><circle cx="42.2" cy="187.6" r="1.8"/><circle cx="44.1" cy="192.8" r="1.8"/><circle cx="45.6" cy="195.3" r="1.8"/><circle cx="47.6" cy="197.8" r="1.8"/><circle cx="49.9" cy="200.3" r="1.8"/><circle cx="52.5" cy="202.8" r="1.8"/><circle cx="347.1" cy="249.4" r="1.8"/><circle cx="356.8" cy="248.9" r="1.8"/><circle cx="366.5" cy="248.3" r="1.8"/><circle cx="376.1" cy="247.5" r="1.8"/><circle cx="385.5" cy="246.7" r="1.8"/><circle cx="394.8" cy="245.8" r="1.8"/><circle cx="404.0" cy="244.8" r="1.8"/><circle cx="413.0" cy="243.8" r="1.8"/><circle cx="421.9" cy="242.6" r="1.8"/><circle cx="430.6" cy="241.3" r="1.8"/><circle cx="439.1" cy="240.0" r="1.8"/><circle cx="447.3" cy="238.6" r="1.8"/><circle cx="455.4" cy="237.1" r="1.8"/><circle cx="463.2" cy="235.5" r="1.8"/><circle cx="470.8" cy="233.8" r="1.8"/><circle cx="478.2" cy="232.1" r="1.8"/><circle cx="485.2" cy="230.3" r="1.8"/><circle cx="492.0" cy="228.4" r="1.8"/><circle cx="498.5" cy="226.4" r="1.8"/><circle cx="504.7" cy="224.4" r="1.8"/><circle cx="510.7" cy="222.3" r="1.8"/><circle cx="516.3" cy="220.2" r="1.8"/><circle cx="521.5" cy="218.0" r="1.8"/><circle cx="531.1" cy="213.5" r="1.8"/><circle cx="535.4" cy="211.2" r="1.8"/><circle cx="539.3" cy="208.8" r="1.8"/><circle cx="542.9" cy="206.4" r="1.8"/><circle cx="546.1" cy="204.0" r="1.8"/><circle cx="548.9" cy="201.5" r="1.8"/><circle cx="555.2" cy="194.0" r="1.8"/><circle cx="558.1" cy="181.1" r="1.8"/><circle cx="557.5" cy="178.6" r="1.8"/><circle cx="556.6" cy="176.0" r="1.8"/><circle cx="46.3" cy="177.7" r="1.8"/><circle cx="47.9" cy="182.8" r="1.8"/><circle cx="49.2" cy="185.4" r="1.8"/><circle cx="51.0" cy="187.9" r="1.8"/><circle cx="53.1" cy="190.4" r="1.8"/><circle cx="55.7" cy="192.9" r="1.8"/><circle cx="88.9" cy="211.5" r="1.8"/><circle cx="358.6" cy="239.0" r="1.8"/><circle cx="368.3" cy="238.3" r="1.8"/><circle cx="377.8" cy="237.6" r="1.8"/><circle cx="387.2" cy="236.7" r="1.8"/><circle cx="396.5" cy="235.8" r="1.8"/><circle cx="405.6" cy="234.8" r="1.8"/><circle cx="414.6" cy="233.7" r="1.8"/><circle cx="423.3" cy="232.5" r="1.8"/><circle cx="431.9" cy="231.2" r="1.8"/><circle cx="440.3" cy="229.8" r="1.8"/><circle cx="448.5" cy="228.3" r="1.8"/><circle cx="456.5" cy="226.8" r="1.8"/><circle cx="464.2" cy="225.2" r="1.8"/><circle cx="471.7" cy="223.5" r="1.8"/><circle cx="478.9" cy="221.7" r="1.8"/><circle cx="485.8" cy="219.8" r="1.8"/><circle cx="492.4" cy="217.9" r="1.8"/><circle cx="498.8" cy="215.9" r="1.8"/><circle cx="504.8" cy="213.9" r="1.8"/><circle cx="510.5" cy="211.8" r="1.8"/><circle cx="515.9" cy="209.6" r="1.8"/><circle cx="525.7" cy="205.1" r="1.8"/><circle cx="530.1" cy="202.8" r="1.8"/><circle cx="534.1" cy="200.5" r="1.8"/><circle cx="537.8" cy="198.1" r="1.8"/><circle cx="541.1" cy="195.6" r="1.8"/><circle cx="544.0" cy="193.2" r="1.8"/><circle cx="548.8" cy="188.2" r="1.8"/><circle cx="550.6" cy="185.7" r="1.8"/><circle cx="552.0" cy="183.1" r="1.8"/><circle cx="553.0" cy="180.5" r="1.8"/><circle cx="553.7" cy="178.0" r="1.8"/><circle cx="553.9" cy="175.4" r="1.8"/><circle cx="553.8" cy="172.8" r="1.8"/><circle cx="553.3" cy="170.3" r="1.8"/><circle cx="552.4" cy="167.7" r="1.8"/><circle cx="50.8" cy="168.0" r="1.8"/><circle cx="51.2" cy="170.6" r="1.8"/><circle cx="52.0" cy="173.2" r="1.8"/><circle cx="53.3" cy="175.7" r="1.8"/><circle cx="54.9" cy="178.3" r="1.8"/><circle cx="56.9" cy="180.8" r="1.8"/><circle cx="59.3" cy="183.3" r="1.8"/><circle cx="62.0" cy="185.7" r="1.8"/><circle cx="65.2" cy="188.2" r="1.8"/><circle cx="91.7" cy="202.0" r="1.8"/><circle cx="370.8" cy="228.4" r="1.8"/><circle cx="380.3" cy="227.6" r="1.8"/><circle cx="389.6" cy="226.7" r="1.8"/><circle cx="398.8" cy="225.8" r="1.8"/><circle cx="407.9" cy="224.7" r="1.8"/><circle cx="416.8" cy="223.5" r="1.8"/><circle cx="425.5" cy="222.3" r="1.8"/><circle cx="434.0" cy="220.9" r="1.8"/><circle cx="442.2" cy="219.5" r="1.8"/><circle cx="450.3" cy="218.0" r="1.8"/><circle cx="458.1" cy="216.4" r="1.8"/><circle cx="465.7" cy="214.7" r="1.8"/><circle cx="473.0" cy="213.0" r="1.8"/><circle cx="480.0" cy="211.2" r="1.8"/><circle cx="486.7" cy="209.3" r="1.8"/><circle cx="493.2" cy="207.3" r="1.8"/><circle cx="499.3" cy="205.3" r="1.8"/><circle cx="505.1" cy="203.2" r="1.8"/><circle cx="515.8" cy="198.8" r="1.8"/><circle cx="520.6" cy="196.6" r="1.8"/><circle cx="525.0" cy="194.3" r="1.8"/><circle cx="529.1" cy="191.9" r="1.8"/><circle cx="532.9" cy="189.6" r="1.8"/><circle cx="536.2" cy="187.1" r="1.8"/><circle cx="541.8" cy="182.2" r="1.8"/><circle cx="544.0" cy="179.7" r="1.8"/><circle cx="545.9" cy="177.2" r="1.8"/><circle cx="547.3" cy="174.6" r="1.8"/><circle cx="548.4" cy="172.0" r="1.8"/><circle cx="549.0" cy="169.5" r="1.8"/><circle cx="549.3" cy="166.9" r="1.8"/><circle cx="549.1" cy="164.3" r="1.8"/><circle cx="548.6" cy="161.8" r="1.8"/><circle cx="547.6" cy="159.2" r="1.8"/><circle cx="56.0" cy="161.2" r="1.8"/><circle cx="56.6" cy="163.7" r="1.8"/><circle cx="57.7" cy="166.3" r="1.8"/><circle cx="59.2" cy="168.8" r="1.8"/><circle cx="61.0" cy="171.4" r="1.8"/><circle cx="63.3" cy="173.9" r="1.8"/><circle cx="66.0" cy="176.3" r="1.8"/><circle cx="69.0" cy="178.8" r="1.8"/><circle cx="72.4" cy="181.2" r="1.8"/><circle cx="76.2" cy="183.6" r="1.8"/><circle cx="80.4" cy="185.9" r="1.8"/><circle cx="85.0" cy="188.2" r="1.8"/><circle cx="89.9" cy="190.5" r="1.8"/><circle cx="95.1" cy="192.6" r="1.8"/><circle cx="364.6" cy="219.2" r="1.8"/><circle cx="374.1" cy="218.5" r="1.8"/><circle cx="383.5" cy="217.6" r="1.8"/><circle cx="392.8" cy="216.7" r="1.8"/><circle cx="401.9" cy="215.7" r="1.8"/><circle cx="410.9" cy="214.6" r="1.8"/><circle cx="419.7" cy="213.3" r="1.8"/><circle cx="428.2" cy="212.0" r="1.8"/><circle cx="436.6" cy="210.6" r="1.8"/><circle cx="444.7" cy="209.2" r="1.8"/><circle cx="452.6" cy="207.6" r="1.8"/><circle cx="460.3" cy="205.9" r="1.8"/><circle cx="474.7" cy="202.4" r="1.8"/><circle cx="481.5" cy="200.5" r="1.8"/><circle cx="488.0" cy="198.6" r="1.8"/><circle cx="494.2" cy="196.6" r="1.8"/><circle cx="500.1" cy="194.5" r="1.8"/><circle cx="505.6" cy="192.3" r="1.8"/><circle cx="510.8" cy="190.2" r="1.8"/><circle cx="515.7" cy="187.9" r="1.8"/><circle cx="520.2" cy="185.6" r="1.8"/><circle cx="524.3" cy="183.3" r="1.8"/><circle cx="528.1" cy="180.9" r="1.8"/><circle cx="531.4" cy="178.5" r="1.8"/><circle cx="534.4" cy="176.0" r="1.8"/><circle cx="537.0" cy="173.5" r="1.8"/><circle cx="539.2" cy="171.0" r="1.8"/><circle cx="541.1" cy="168.5" r="1.8"/><circle cx="542.5" cy="165.9" r="1.8"/><circle cx="543.5" cy="163.4" r="1.8"/><circle cx="544.1" cy="160.8" r="1.8"/><circle cx="544.3" cy="158.2" r="1.8"/><circle cx="544.1" cy="155.6" r="1.8"/><circle cx="543.5" cy="153.1" r="1.8"/><circle cx="542.5" cy="150.5" r="1.8"/><circle cx="61.0" cy="149.4" r="1.8"/><circle cx="61.1" cy="152.0" r="1.8"/><circle cx="61.6" cy="154.6" r="1.8"/><circle cx="62.5" cy="157.1" r="1.8"/><circle cx="63.9" cy="159.7" r="1.8"/><circle cx="65.6" cy="162.2" r="1.8"/><circle cx="67.8" cy="164.7" r="1.8"/><circle cx="70.3" cy="167.2" r="1.8"/><circle cx="73.3" cy="169.7" r="1.8"/><circle cx="76.6" cy="172.1" r="1.8"/><circle cx="80.4" cy="174.5" r="1.8"/><circle cx="84.5" cy="176.8" r="1.8"/><circle cx="89.0" cy="179.1" r="1.8"/><circle cx="93.8" cy="181.4" r="1.8"/><circle cx="99.0" cy="183.6" r="1.8"/><circle cx="104.6" cy="185.7" r="1.8"/><circle cx="368.7" cy="209.3" r="1.8"/><circle cx="378.2" cy="208.5" r="1.8"/><circle cx="387.5" cy="207.6" r="1.8"/><circle cx="396.7" cy="206.6" r="1.8"/><circle cx="405.7" cy="205.6" r="1.8"/><circle cx="414.5" cy="204.4" r="1.8"/><circle cx="423.1" cy="203.1" r="1.8"/><circle cx="431.6" cy="201.7" r="1.8"/><circle cx="439.7" cy="200.3" r="1.8"/><circle cx="511.1" cy="179.1" r="1.8"/><circle cx="515.5" cy="176.8" r="1.8"/><circle cx="519.7" cy="174.5" r="1.8"/><circle cx="523.4" cy="172.1" r="1.8"/><circle cx="526.7" cy="169.6" r="1.8"/><circle cx="529.7" cy="167.2" r="1.8"/><circle cx="532.2" cy="164.7" r="1.8"/><circle cx="534.4" cy="162.2" r="1.8"/><circle cx="536.1" cy="159.7" r="1.8"/><circle cx="537.5" cy="157.1" r="1.8"/><circle cx="538.4" cy="154.5" r="1.8"/><circle cx="538.9" cy="152.0" r="1.8"/><circle cx="539.0" cy="149.4" r="1.8"/><circle cx="538.7" cy="146.8" r="1.8"/><circle cx="538.0" cy="144.2" r="1.8"/><circle cx="536.8" cy="141.7" r="1.8"/><circle cx="67.1" cy="137.9" r="1.8"/><circle cx="66.6" cy="140.5" r="1.8"/><circle cx="66.6" cy="143.1" r="1.8"/><circle cx="66.9" cy="145.6" r="1.8"/><circle cx="67.7" cy="148.2" r="1.8"/><circle cx="69.0" cy="150.8" r="1.8"/><circle cx="70.6" cy="153.3" r="1.8"/><circle cx="72.6" cy="155.8" r="1.8"/><circle cx="75.1" cy="158.3" r="1.8"/><circle cx="78.0" cy="160.8" r="1.8"/><circle cx="81.3" cy="163.2" r="1.8"/><circle cx="84.9" cy="165.6" r="1.8"/><circle cx="89.0" cy="168.0" r="1.8"/><circle cx="93.4" cy="170.3" r="1.8"/><circle cx="98.3" cy="172.5" r="1.8"/><circle cx="103.5" cy="174.7" r="1.8"/><circle cx="109.0" cy="176.8" r="1.8"/><circle cx="114.9" cy="178.9" r="1.8"/><circle cx="382.9" cy="198.6" r="1.8"/><circle cx="392.1" cy="197.6" r="1.8"/><circle cx="401.1" cy="196.6" r="1.8"/><circle cx="410.0" cy="195.4" r="1.8"/><circle cx="418.7" cy="194.1" r="1.8"/><circle cx="427.1" cy="192.8" r="1.8"/><circle cx="435.4" cy="191.3" r="1.8"/><circle cx="479.1" cy="180.9" r="1.8"/><circle cx="496.7" cy="174.6" r="1.8"/><circle cx="506.7" cy="170.2" r="1.8"/><circle cx="511.1" cy="167.9" r="1.8"/><circle cx="515.2" cy="165.5" r="1.8"/><circle cx="518.8" cy="163.1" r="1.8"/><circle cx="522.1" cy="160.7" r="1.8"/><circle cx="525.0" cy="158.2" r="1.8"/><circle cx="527.4" cy="155.7" r="1.8"/><circle cx="529.5" cy="153.2" r="1.8"/><circle cx="531.1" cy="150.7" r="1.8"/><circle cx="532.3" cy="148.1" r="1.8"/><circle cx="533.1" cy="145.6" r="1.8"/><circle cx="533.4" cy="143.0" r="1.8"/><circle cx="533.4" cy="140.4" r="1.8"/><circle cx="532.9" cy="137.8" r="1.8"/><circle cx="532.0" cy="135.3" r="1.8"/><circle cx="530.6" cy="132.7" r="1.8"/><circle cx="73.2" cy="129.3" r="1.8"/><circle cx="72.6" cy="131.9" r="1.8"/><circle cx="72.4" cy="134.4" r="1.8"/><circle cx="72.6" cy="137.0" r="1.8"/><circle cx="73.3" cy="139.6" r="1.8"/><circle cx="74.4" cy="142.1" r="1.8"/><circle cx="75.9" cy="144.7" r="1.8"/><circle cx="77.9" cy="147.2" r="1.8"/><circle cx="80.3" cy="149.7" r="1.8"/><circle cx="83.1" cy="152.2" r="1.8"/><circle cx="86.3" cy="154.6" r="1.8"/><circle cx="89.9" cy="157.0" r="1.8"/><circle cx="94.0" cy="159.4" r="1.8"/><circle cx="98.4" cy="161.7" r="1.8"/><circle cx="103.2" cy="163.9" r="1.8"/><circle cx="108.4" cy="166.1" r="1.8"/><circle cx="113.9" cy="168.3" r="1.8"/><circle cx="119.8" cy="170.3" r="1.8"/><circle cx="379.0" cy="189.6" r="1.8"/><circle cx="388.2" cy="188.6" r="1.8"/><circle cx="468.7" cy="173.9" r="1.8"/><circle cx="481.4" cy="169.9" r="1.8"/><circle cx="487.3" cy="167.8" r="1.8"/><circle cx="492.7" cy="165.7" r="1.8"/><circle cx="497.8" cy="163.5" r="1.8"/><circle cx="502.6" cy="161.2" r="1.8"/><circle cx="506.9" cy="158.9" r="1.8"/><circle cx="510.9" cy="156.5" r="1.8"/><circle cx="514.4" cy="154.1" r="1.8"/><circle cx="517.5" cy="151.7" r="1.8"/><circle cx="520.3" cy="149.2" r="1.8"/><circle cx="524.4" cy="144.1" r="1.8"/><circle cx="525.9" cy="141.6" r="1.8"/><circle cx="526.9" cy="139.0" r="1.8"/><circle cx="527.5" cy="136.5" r="1.8"/><circle cx="527.6" cy="133.9" r="1.8"/><circle cx="527.3" cy="131.3" r="1.8"/><circle cx="526.6" cy="128.8" r="1.8"/><circle cx="525.4" cy="126.2" r="1.8"/><circle cx="523.8" cy="123.7" r="1.8"/><circle cx="80.9" cy="118.4" r="1.8"/><circle cx="79.7" cy="121.0" r="1.8"/><circle cx="78.9" cy="123.5" r="1.8"/><circle cx="78.5" cy="126.1" r="1.8"/><circle cx="78.6" cy="128.7" r="1.8"/><circle cx="79.2" cy="131.2" r="1.8"/><circle cx="80.2" cy="133.8" r="1.8"/><circle cx="81.6" cy="136.3" r="1.8"/><circle cx="83.5" cy="138.9" r="1.8"/><circle cx="85.8" cy="141.4" r="1.8"/><circle cx="88.6" cy="143.9" r="1.8"/><circle cx="91.8" cy="146.3" r="1.8"/><circle cx="95.4" cy="148.7" r="1.8"/><circle cx="99.4" cy="151.0" r="1.8"/><circle cx="103.8" cy="153.4" r="1.8"/><circle cx="108.6" cy="155.6" r="1.8"/><circle cx="113.8" cy="157.8" r="1.8"/><circle cx="119.4" cy="159.9" r="1.8"/><circle cx="125.3" cy="162.0" r="1.8"/><circle cx="366.3" cy="181.4" r="1.8"/><circle cx="375.8" cy="180.6" r="1.8"/><circle cx="385.0" cy="179.7" r="1.8"/><circle cx="458.6" cy="166.8" r="1.8"/><circle cx="477.9" cy="160.9" r="1.8"/><circle cx="483.7" cy="158.8" r="1.8"/><circle cx="489.1" cy="156.6" r="1.8"/><circle cx="494.0" cy="154.4" r="1.8"/><circle cx="498.6" cy="152.1" r="1.8"/><circle cx="502.8" cy="149.8" r="1.8"/><circle cx="506.6" cy="147.4" r="1.8"/><circle cx="510.0" cy="145.0" r="1.8"/><circle cx="513.0" cy="142.5" r="1.8"/><circle cx="517.6" cy="137.5" r="1.8"/><circle cx="519.2" cy="135.0" r="1.8"/><circle cx="520.4" cy="132.4" r="1.8"/><circle cx="521.2" cy="129.8" r="1.8"/><circle cx="521.5" cy="127.3" r="1.8"/><circle cx="521.3" cy="124.7" r="1.8"/><circle cx="520.8" cy="122.1" r="1.8"/><circle cx="519.7" cy="119.6" r="1.8"/><circle cx="518.3" cy="117.0" r="1.8"/><circle cx="516.4" cy="114.5" r="1.8"/><circle cx="86.4" cy="112.9" r="1.8"/><circle cx="85.4" cy="115.5" r="1.8"/><circle cx="85.0" cy="118.0" r="1.8"/><circle cx="85.0" cy="120.6" r="1.8"/><circle cx="85.4" cy="123.2" r="1.8"/><circle cx="86.3" cy="125.7" r="1.8"/><circle cx="87.7" cy="128.3" r="1.8"/><circle cx="89.5" cy="130.8" r="1.8"/><circle cx="91.8" cy="133.3" r="1.8"/><circle cx="94.5" cy="135.8" r="1.8"/><circle cx="97.6" cy="138.3" r="1.8"/><circle cx="101.2" cy="140.7" r="1.8"/><circle cx="105.2" cy="143.0" r="1.8"/><circle cx="109.6" cy="145.3" r="1.8"/><circle cx="114.5" cy="147.6" r="1.8"/><circle cx="119.7" cy="149.8" r="1.8"/><circle cx="125.3" cy="151.9" r="1.8"/><circle cx="131.3" cy="153.9" r="1.8"/><circle cx="137.7" cy="155.9" r="1.8"/><circle cx="363.8" cy="172.6" r="1.8"/><circle cx="373.2" cy="171.7" r="1.8"/><circle cx="382.5" cy="170.8" r="1.8"/><circle cx="391.6" cy="169.8" r="1.8"/><circle cx="441.4" cy="161.3" r="1.8"/><circle cx="455.8" cy="157.8" r="1.8"/><circle cx="462.5" cy="155.9" r="1.8"/><circle cx="468.8" cy="153.9" r="1.8"/><circle cx="474.8" cy="151.8" r="1.8"/><circle cx="480.4" cy="149.7" r="1.8"/><circle cx="485.6" cy="147.5" r="1.8"/><circle cx="490.4" cy="145.3" r="1.8"/><circle cx="494.9" cy="143.0" r="1.8"/><circle cx="498.9" cy="140.6" r="1.8"/><circle cx="502.4" cy="138.2" r="1.8"/><circle cx="505.6" cy="135.8" r="1.8"/><circle cx="512.4" cy="128.2" r="1.8"/><circle cx="513.7" cy="125.7" r="1.8"/><circle cx="514.6" cy="123.1" r="1.8"/><circle cx="515.0" cy="120.6" r="1.8"/><circle cx="515.0" cy="118.0" r="1.8"/><circle cx="514.5" cy="115.4" r="1.8"/><circle cx="513.6" cy="112.8" r="1.8"/><circle cx="512.2" cy="110.3" r="1.8"/><circle cx="510.4" cy="107.8" r="1.8"/><circle cx="93.4" cy="105.1" r="1.8"/><circle cx="92.3" cy="107.7" r="1.8"/><circle cx="91.7" cy="110.3" r="1.8"/><circle cx="91.6" cy="112.8" r="1.8"/><circle cx="91.9" cy="115.4" r="1.8"/><circle cx="92.7" cy="118.0" r="1.8"/><circle cx="94.0" cy="120.5" r="1.8"/><circle cx="95.8" cy="123.1" r="1.8"/><circle cx="98.0" cy="125.6" r="1.8"/><circle cx="100.7" cy="128.1" r="1.8"/><circle cx="103.9" cy="130.5" r="1.8"/><circle cx="107.4" cy="132.9" r="1.8"/><circle cx="111.5" cy="135.3" r="1.8"/><circle cx="115.9" cy="137.6" r="1.8"/><circle cx="120.8" cy="139.8" r="1.8"/><circle cx="126.1" cy="142.0" r="1.8"/><circle cx="131.8" cy="144.1" r="1.8"/><circle cx="137.8" cy="146.1" r="1.8"/><circle cx="144.3" cy="148.1" r="1.8"/><circle cx="361.9" cy="163.8" r="1.8"/><circle cx="371.4" cy="162.9" r="1.8"/><circle cx="380.6" cy="162.0" r="1.8"/><circle cx="389.7" cy="161.0" r="1.8"/><circle cx="423.8" cy="155.7" r="1.8"/><circle cx="446.4" cy="150.6" r="1.8"/><circle cx="453.3" cy="148.8" r="1.8"/><circle cx="459.9" cy="146.9" r="1.8"/><circle cx="466.1" cy="144.8" r="1.8"/><circle cx="491.2" cy="133.8" r="1.8"/><circle cx="494.9" cy="131.4" r="1.8"/><circle cx="498.2" cy="128.9" r="1.8"/><circle cx="503.5" cy="124.0" r="1.8"/><circle cx="505.4" cy="121.5" r="1.8"/><circle cx="506.8" cy="118.9" r="1.8"/><circle cx="507.8" cy="116.3" r="1.8"/><circle cx="508.4" cy="113.8" r="1.8"/><circle cx="508.4" cy="111.2" r="1.8"/><circle cx="508.0" cy="108.6" r="1.8"/><circle cx="507.1" cy="106.1" r="1.8"/><circle cx="505.7" cy="103.5" r="1.8"/><circle cx="503.8" cy="101.0" r="1.8"/><circle cx="100.7" cy="97.7" r="1.8"/><circle cx="99.4" cy="100.2" r="1.8"/><circle cx="98.7" cy="102.8" r="1.8"/><circle cx="98.5" cy="105.4" r="1.8"/><circle cx="98.7" cy="108.0" r="1.8"/><circle cx="99.5" cy="110.5" r="1.8"/><circle cx="100.7" cy="113.1" r="1.8"/><circle cx="102.4" cy="115.6" r="1.8"/><circle cx="104.6" cy="118.1" r="1.8"/><circle cx="107.3" cy="120.6" r="1.8"/><circle cx="110.5" cy="123.1" r="1.8"/><circle cx="114.1" cy="125.5" r="1.8"/><circle cx="118.1" cy="127.8" r="1.8"/><circle cx="122.6" cy="130.1" r="1.8"/><circle cx="127.6" cy="132.3" r="1.8"/><circle cx="132.9" cy="134.5" r="1.8"/><circle cx="138.7" cy="136.6" r="1.8"/><circle cx="144.8" cy="138.6" r="1.8"/><circle cx="151.4" cy="140.6" r="1.8"/><circle cx="158.3" cy="142.4" r="1.8"/><circle cx="173.1" cy="145.9" r="1.8"/><circle cx="388.4" cy="152.2" r="1.8"/><circle cx="397.2" cy="151.0" r="1.8"/><circle cx="405.8" cy="149.7" r="1.8"/><circle cx="414.2" cy="148.3" r="1.8"/><circle cx="422.2" cy="146.8" r="1.8"/><circle cx="430.0" cy="145.2" r="1.8"/><circle cx="437.4" cy="143.5" r="1.8"/><circle cx="444.5" cy="141.7" r="1.8"/><circle cx="451.3" cy="139.8" r="1.8"/><circle cx="457.7" cy="137.8" r="1.8"/><circle cx="463.7" cy="135.8" r="1.8"/><circle cx="474.5" cy="131.5" r="1.8"/><circle cx="479.2" cy="129.2" r="1.8"/><circle cx="483.6" cy="126.9" r="1.8"/><circle cx="487.4" cy="124.5" r="1.8"/><circle cx="490.9" cy="122.1" r="1.8"/><circle cx="496.3" cy="117.1" r="1.8"/><circle cx="498.3" cy="114.6" r="1.8"/><circle cx="499.8" cy="112.1" r="1.8"/><circle cx="500.9" cy="109.5" r="1.8"/><circle cx="501.4" cy="106.9" r="1.8"/><circle cx="501.5" cy="104.4" r="1.8"/><circle cx="501.1" cy="101.8" r="1.8"/><circle cx="500.1" cy="99.2" r="1.8"/><circle cx="498.7" cy="96.7" r="1.8"/><circle cx="496.8" cy="94.2" r="1.8"/><circle cx="494.5" cy="91.7" r="1.8"/><circle cx="106.8" cy="93.1" r="1.8"/><circle cx="106.0" cy="95.7" r="1.8"/><circle cx="105.6" cy="98.2" r="1.8"/><circle cx="105.8" cy="100.8" r="1.8"/><circle cx="106.5" cy="103.4" r="1.8"/><circle cx="107.7" cy="105.9" r="1.8"/><circle cx="109.4" cy="108.5" r="1.8"/><circle cx="111.6" cy="111.0" r="1.8"/><circle cx="114.2" cy="113.5" r="1.8"/><circle cx="117.4" cy="115.9" r="1.8"/><circle cx="121.1" cy="118.3" r="1.8"/><circle cx="125.2" cy="120.6" r="1.8"/><circle cx="129.7" cy="122.9" r="1.8"/><circle cx="134.8" cy="125.2" r="1.8"/><circle cx="140.2" cy="127.3" r="1.8"/><circle cx="146.1" cy="129.4" r="1.8"/><circle cx="152.4" cy="131.4" r="1.8"/><circle cx="159.0" cy="133.3" r="1.8"/><circle cx="166.1" cy="135.1" r="1.8"/><circle cx="173.4" cy="136.8" r="1.8"/><circle cx="206.1" cy="142.7" r="1.8"/><circle cx="378.7" cy="144.7" r="1.8"/><circle cx="387.7" cy="143.6" r="1.8"/><circle cx="396.5" cy="142.3" r="1.8"/><circle cx="405.0" cy="141.0" r="1.8"/><circle cx="413.2" cy="139.6" r="1.8"/><circle cx="421.1" cy="138.0" r="1.8"/><circle cx="428.7" cy="136.4" r="1.8"/><circle cx="436.0" cy="134.6" r="1.8"/><circle cx="443.0" cy="132.8" r="1.8"/><circle cx="449.5" cy="130.8" r="1.8"/><circle cx="455.7" cy="128.8" r="1.8"/><circle cx="461.4" cy="126.7" r="1.8"/><circle cx="466.7" cy="124.5" r="1.8"/><circle cx="471.6" cy="122.3" r="1.8"/><circle cx="476.1" cy="120.0" r="1.8"/><circle cx="480.1" cy="117.6" r="1.8"/><circle cx="483.6" cy="115.2" r="1.8"/><circle cx="486.6" cy="112.8" r="1.8"/><circle cx="489.1" cy="110.3" r="1.8"/><circle cx="491.2" cy="107.7" r="1.8"/><circle cx="492.7" cy="105.2" r="1.8"/><circle cx="493.8" cy="102.6" r="1.8"/><circle cx="494.3" cy="100.1" r="1.8"/><circle cx="494.3" cy="97.5" r="1.8"/><circle cx="493.8" cy="94.9" r="1.8"/><circle cx="492.8" cy="92.4" r="1.8"/><circle cx="491.3" cy="89.8" r="1.8"/><circle cx="489.3" cy="87.3" r="1.8"/><circle cx="486.8" cy="84.8" r="1.8"/><circle cx="115.9" cy="83.7" r="1.8"/><circle cx="114.4" cy="86.3" r="1.8"/><circle cx="113.5" cy="88.8" r="1.8"/><circle cx="113.1" cy="91.4" r="1.8"/><circle cx="113.1" cy="94.0" r="1.8"/><circle cx="113.8" cy="96.6" r="1.8"/><circle cx="114.9" cy="99.1" r="1.8"/><circle cx="116.6" cy="101.6" r="1.8"/><circle cx="118.8" cy="104.2" r="1.8"/><circle cx="121.5" cy="106.6" r="1.8"/><circle cx="124.7" cy="109.1" r="1.8"/><circle cx="128.4" cy="111.5" r="1.8"/><circle cx="132.6" cy="113.8" r="1.8"/><circle cx="137.3" cy="116.1" r="1.8"/><circle cx="142.4" cy="118.3" r="1.8"/><circle cx="148.0" cy="120.4" r="1.8"/><circle cx="154.0" cy="122.5" r="1.8"/><circle cx="160.4" cy="124.4" r="1.8"/><circle cx="167.2" cy="126.3" r="1.8"/><circle cx="198.0" cy="132.8" r="1.8"/><circle cx="206.5" cy="134.1" r="1.8"/><circle cx="378.6" cy="136.1" r="1.8"/><circle cx="387.5" cy="135.0" r="1.8"/><circle cx="396.2" cy="133.7" r="1.8"/><circle cx="404.6" cy="132.4" r="1.8"/><circle cx="412.7" cy="130.9" r="1.8"/><circle cx="420.4" cy="129.3" r="1.8"/><circle cx="427.9" cy="127.5" r="1.8"/><circle cx="435.0" cy="125.7" r="1.8"/><circle cx="441.6" cy="123.8" r="1.8"/><circle cx="447.9" cy="121.8" r="1.8"/><circle cx="453.8" cy="119.8" r="1.8"/><circle cx="459.2" cy="117.6" r="1.8"/><circle cx="464.2" cy="115.4" r="1.8"/><circle cx="468.8" cy="113.1" r="1.8"/><circle cx="472.8" cy="110.7" r="1.8"/><circle cx="476.3" cy="108.3" r="1.8"/><circle cx="479.4" cy="105.9" r="1.8"/><circle cx="482.0" cy="103.4" r="1.8"/><circle cx="484.0" cy="100.9" r="1.8"/><circle cx="485.5" cy="98.3" r="1.8"/><circle cx="486.5" cy="95.8" r="1.8"/><circle cx="486.9" cy="93.2" r="1.8"/><circle cx="486.9" cy="90.6" r="1.8"/><circle cx="486.3" cy="88.0" r="1.8"/><circle cx="485.1" cy="85.5" r="1.8"/><circle cx="483.5" cy="82.9" r="1.8"/><circle cx="481.3" cy="80.4" r="1.8"/><circle cx="478.6" cy="77.9" r="1.8"/><circle cx="123.9" cy="77.2" r="1.8"/><circle cx="122.3" cy="79.8" r="1.8"/><circle cx="121.2" cy="82.3" r="1.8"/><circle cx="120.7" cy="84.9" r="1.8"/><circle cx="120.7" cy="87.5" r="1.8"/><circle cx="121.3" cy="90.0" r="1.8"/><circle cx="122.4" cy="92.6" r="1.8"/><circle cx="124.1" cy="95.1" r="1.8"/><circle cx="126.3" cy="97.6" r="1.8"/><circle cx="129.1" cy="100.1" r="1.8"/><circle cx="132.3" cy="102.5" r="1.8"/><circle cx="136.1" cy="104.9" r="1.8"/><circle cx="140.4" cy="107.3" r="1.8"/><circle cx="145.2" cy="109.5" r="1.8"/><circle cx="150.5" cy="111.7" r="1.8"/><circle cx="156.2" cy="113.8" r="1.8"/><circle cx="162.4" cy="115.8" r="1.8"/><circle cx="168.9" cy="117.8" r="1.8"/><circle cx="175.9" cy="119.6" r="1.8"/><circle cx="183.3" cy="121.3" r="1.8"/><circle cx="191.0" cy="122.9" r="1.8"/><circle cx="199.1" cy="124.4" r="1.8"/><circle cx="207.5" cy="125.8" r="1.8"/><circle cx="370.0" cy="128.8" r="1.8"/><circle cx="387.8" cy="126.5" r="1.8"/><circle cx="396.4" cy="125.2" r="1.8"/><circle cx="404.6" cy="123.8" r="1.8"/><circle cx="412.5" cy="122.2" r="1.8"/><circle cx="420.1" cy="120.5" r="1.8"/><circle cx="427.3" cy="118.8" r="1.8"/><circle cx="434.1" cy="116.9" r="1.8"/><circle cx="440.5" cy="114.9" r="1.8"/><circle cx="446.5" cy="112.9" r="1.8"/><circle cx="452.0" cy="110.7" r="1.8"/><circle cx="457.0" cy="108.5" r="1.8"/><circle cx="461.6" cy="106.2" r="1.8"/><circle cx="465.7" cy="103.9" r="1.8"/><circle cx="469.2" cy="101.4" r="1.8"/><circle cx="472.3" cy="99.0" r="1.8"/><circle cx="474.8" cy="96.5" r="1.8"/><circle cx="476.7" cy="94.0" r="1.8"/><circle cx="478.2" cy="91.4" r="1.8"/><circle cx="479.0" cy="88.9" r="1.8"/><circle cx="479.4" cy="86.3" r="1.8"/><circle cx="479.1" cy="83.7" r="1.8"/><circle cx="478.4" cy="81.2" r="1.8"/><circle cx="477.0" cy="78.6" r="1.8"/><circle cx="475.2" cy="76.1" r="1.8"/><circle cx="472.8" cy="73.6" r="1.8"/><circle cx="469.8" cy="71.1" r="1.8"/><circle cx="132.1" cy="71.0" r="1.8"/><circle cx="130.4" cy="73.6" r="1.8"/><circle cx="129.2" cy="76.1" r="1.8"/><circle cx="128.6" cy="78.7" r="1.8"/><circle cx="128.5" cy="81.3" r="1.8"/><circle cx="129.1" cy="83.9" r="1.8"/><circle cx="130.2" cy="86.4" r="1.8"/><circle cx="131.9" cy="88.9" r="1.8"/><circle cx="134.1" cy="91.5" r="1.8"/><circle cx="137.0" cy="93.9" r="1.8"/><circle cx="140.3" cy="96.3" r="1.8"/><circle cx="144.2" cy="98.7" r="1.8"/><circle cx="148.6" cy="101.0" r="1.8"/><circle cx="153.6" cy="103.3" r="1.8"/><circle cx="164.9" cy="107.5" r="1.8"/><circle cx="171.2" cy="109.5" r="1.8"/><circle cx="178.0" cy="111.4" r="1.8"/><circle cx="185.2" cy="113.1" r="1.8"/><circle cx="192.8" cy="114.8" r="1.8"/><circle cx="200.7" cy="116.3" r="1.8"/><circle cx="209.0" cy="117.8" r="1.8"/><circle cx="352.5" cy="122.4" r="1.8"/><circle cx="361.8" cy="121.6" r="1.8"/><circle cx="371.0" cy="120.6" r="1.8"/><circle cx="388.6" cy="118.2" r="1.8"/><circle cx="397.0" cy="116.8" r="1.8"/><circle cx="405.0" cy="115.2" r="1.8"/><circle cx="412.7" cy="113.6" r="1.8"/><circle cx="420.0" cy="111.9" r="1.8"/><circle cx="426.9" cy="110.0" r="1.8"/><circle cx="433.4" cy="108.1" r="1.8"/><circle cx="439.4" cy="106.0" r="1.8"/><circle cx="445.0" cy="103.9" r="1.8"/><circle cx="450.0" cy="101.7" r="1.8"/><circle cx="454.6" cy="99.4" r="1.8"/><circle cx="458.6" cy="97.0" r="1.8"/><circle cx="462.2" cy="94.6" r="1.8"/><circle cx="465.1" cy="92.2" r="1.8"/><circle cx="467.5" cy="89.7" r="1.8"/><circle cx="469.4" cy="87.1" r="1.8"/><circle cx="470.7" cy="84.6" r="1.8"/><circle cx="471.4" cy="82.0" r="1.8"/><circle cx="471.5" cy="79.4" r="1.8"/><circle cx="471.0" cy="76.9" r="1.8"/><circle cx="470.0" cy="74.3" r="1.8"/><circle cx="468.4" cy="71.8" r="1.8"/><circle cx="466.3" cy="69.2" r="1.8"/><circle cx="463.5" cy="66.8" r="1.8"/><circle cx="140.5" cy="65.2" r="1.8"/><circle cx="138.6" cy="67.7" r="1.8"/><circle cx="137.3" cy="70.3" r="1.8"/><circle cx="136.7" cy="72.8" r="1.8"/><circle cx="136.6" cy="75.4" r="1.8"/><circle cx="137.1" cy="78.0" r="1.8"/><circle cx="138.2" cy="80.5" r="1.8"/><circle cx="139.9" cy="83.1" r="1.8"/><circle cx="142.2" cy="85.6" r="1.8"/><circle cx="145.1" cy="88.1" r="1.8"/><circle cx="148.6" cy="90.5" r="1.8"/><circle cx="152.7" cy="92.8" r="1.8"/><circle cx="157.2" cy="95.1" r="1.8"/><circle cx="162.3" cy="97.3" r="1.8"/><circle cx="174.1" cy="101.5" r="1.8"/><circle cx="180.6" cy="103.4" r="1.8"/><circle cx="187.6" cy="105.2" r="1.8"/><circle cx="195.1" cy="106.9" r="1.8"/><circle cx="202.9" cy="108.5" r="1.8"/><circle cx="363.4" cy="113.5" r="1.8"/><circle cx="397.9" cy="108.4" r="1.8"/><circle cx="420.0" cy="103.2" r="1.8"/><circle cx="426.5" cy="101.3" r="1.8"/><circle cx="432.6" cy="99.2" r="1.8"/><circle cx="438.2" cy="97.1" r="1.8"/><circle cx="443.2" cy="94.9" r="1.8"/><circle cx="447.8" cy="92.6" r="1.8"/><circle cx="451.7" cy="90.2" r="1.8"/><circle cx="455.2" cy="87.8" r="1.8"/><circle cx="458.0" cy="85.4" r="1.8"/><circle cx="460.3" cy="82.8" r="1.8"/><circle cx="461.9" cy="80.3" r="1.8"/><circle cx="463.0" cy="77.7" r="1.8"/><circle cx="463.4" cy="75.2" r="1.8"/><circle cx="463.3" cy="72.6" r="1.8"/><circle cx="462.6" cy="70.0" r="1.8"/><circle cx="461.2" cy="67.5" r="1.8"/><circle cx="459.3" cy="65.0" r="1.8"/><circle cx="456.7" cy="62.5" r="1.8"/><circle cx="453.6" cy="60.0" r="1.8"/><circle cx="151.8" cy="57.2" r="1.8"/><circle cx="149.1" cy="59.7" r="1.8"/><circle cx="147.1" cy="62.2" r="1.8"/><circle cx="145.7" cy="64.8" r="1.8"/><circle cx="144.9" cy="67.3" r="1.8"/><circle cx="144.8" cy="69.9" r="1.8"/><circle cx="145.3" cy="72.5" r="1.8"/><circle cx="146.5" cy="75.0" r="1.8"/><circle cx="148.2" cy="77.6" r="1.8"/><circle cx="150.6" cy="80.1" r="1.8"/><circle cx="153.6" cy="82.5" r="1.8"/><circle cx="157.3" cy="84.9" r="1.8"/><circle cx="183.7" cy="95.7" r="1.8"/><circle cx="190.6" cy="97.6" r="1.8"/><circle cx="197.8" cy="99.4" r="1.8"/><circle cx="205.5" cy="101.0" r="1.8"/><circle cx="356.3" cy="106.6" r="1.8"/><circle cx="399.0" cy="100.1" r="1.8"/><circle cx="413.5" cy="96.5" r="1.8"/><circle cx="420.0" cy="94.6" r="1.8"/><circle cx="426.1" cy="92.6" r="1.8"/><circle cx="431.6" cy="90.4" r="1.8"/><circle cx="436.6" cy="88.2" r="1.8"/><circle cx="441.1" cy="85.9" r="1.8"/><circle cx="444.9" cy="83.5" r="1.8"/><circle cx="448.2" cy="81.1" r="1.8"/><circle cx="450.8" cy="78.6" r="1.8"/><circle cx="452.9" cy="76.1" r="1.8"/><circle cx="454.3" cy="73.5" r="1.8"/><circle cx="455.1" cy="71.0" r="1.8"/><circle cx="455.2" cy="68.4" r="1.8"/><circle cx="454.7" cy="65.8" r="1.8"/><circle cx="453.6" cy="63.3" r="1.8"/><circle cx="451.8" cy="60.7" r="1.8"/><circle cx="449.4" cy="58.2" r="1.8"/><circle cx="446.4" cy="55.8" r="1.8"/><circle cx="442.8" cy="53.4" r="1.8"/><circle cx="164.2" cy="49.6" r="1.8"/><circle cx="160.7" cy="52.0" r="1.8"/><circle cx="157.9" cy="54.5" r="1.8"/><circle cx="155.7" cy="57.0" r="1.8"/><circle cx="154.2" cy="59.6" r="1.8"/><circle cx="153.4" cy="62.1" r="1.8"/><circle cx="153.2" cy="64.7" r="1.8"/><circle cx="153.8" cy="67.3" r="1.8"/><circle cx="154.9" cy="69.8" r="1.8"/><circle cx="156.8" cy="72.4" r="1.8"/><circle cx="159.3" cy="74.9" r="1.8"/><circle cx="187.3" cy="88.4" r="1.8"/><circle cx="193.9" cy="90.3" r="1.8"/><circle cx="208.6" cy="93.8" r="1.8"/><circle cx="376.5" cy="96.5" r="1.8"/><circle cx="392.7" cy="93.5" r="1.8"/><circle cx="413.8" cy="88.0" r="1.8"/><circle cx="419.8" cy="86.0" r="1.8"/><circle cx="425.3" cy="83.8" r="1.8"/><circle cx="430.2" cy="81.6" r="1.8"/><circle cx="434.5" cy="79.3" r="1.8"/><circle cx="438.1" cy="76.9" r="1.8"/><circle cx="441.2" cy="74.4" r="1.8"/><circle cx="443.6" cy="71.9" r="1.8"/><circle cx="445.3" cy="69.4" r="1.8"/><circle cx="446.4" cy="66.8" r="1.8"/><circle cx="446.8" cy="64.3" r="1.8"/><circle cx="446.5" cy="61.7" r="1.8"/><circle cx="445.6" cy="59.1" r="1.8"/><circle cx="443.9" cy="56.6" r="1.8"/><circle cx="441.7" cy="54.1" r="1.8"/><circle cx="438.7" cy="51.6" r="1.8"/><circle cx="435.2" cy="49.2" r="1.8"/><circle cx="177.9" cy="42.5" r="1.8"/><circle cx="173.5" cy="44.8" r="1.8"/><circle cx="169.9" cy="47.2" r="1.8"/><circle cx="166.9" cy="49.7" r="1.8"/><circle cx="164.5" cy="52.2" r="1.8"/><circle cx="162.9" cy="54.7" r="1.8"/><circle cx="162.0" cy="57.3" r="1.8"/><circle cx="161.9" cy="59.9" r="1.8"/><circle cx="162.4" cy="62.4" r="1.8"/><circle cx="163.6" cy="65.0" r="1.8"/><circle cx="165.6" cy="67.5" r="1.8"/><circle cx="168.2" cy="70.0" r="1.8"/><circle cx="191.3" cy="81.3" r="1.8"/><circle cx="197.7" cy="83.3" r="1.8"/><circle cx="246.0" cy="92.1" r="1.8"/><circle cx="255.3" cy="93.1" r="1.8"/><circle cx="370.4" cy="90.0" r="1.8"/><circle cx="378.8" cy="88.6" r="1.8"/><circle cx="386.7" cy="87.1" r="1.8"/><circle cx="401.3" cy="83.6" r="1.8"/><circle cx="407.8" cy="81.6" r="1.8"/><circle cx="413.7" cy="79.5" r="1.8"/><circle cx="419.1" cy="77.4" r="1.8"/><circle cx="423.8" cy="75.1" r="1.8"/><circle cx="427.9" cy="72.8" r="1.8"/><circle cx="431.3" cy="70.3" r="1.8"/><circle cx="434.1" cy="67.9" r="1.8"/><circle cx="436.1" cy="65.3" r="1.8"/><circle cx="437.5" cy="62.8" r="1.8"/><circle cx="438.1" cy="60.2" r="1.8"/><circle cx="438.0" cy="57.7" r="1.8"/><circle cx="437.2" cy="55.1" r="1.8"/><circle cx="435.7" cy="52.5" r="1.8"/><circle cx="433.5" cy="50.0" r="1.8"/><circle cx="430.6" cy="47.6" r="1.8"/><circle cx="427.0" cy="45.2" r="1.8"/><circle cx="422.8" cy="42.8" r="1.8"/><circle cx="187.7" cy="38.1" r="1.8"/><circle cx="183.1" cy="40.4" r="1.8"/><circle cx="179.2" cy="42.7" r="1.8"/><circle cx="176.0" cy="45.2" r="1.8"/><circle cx="173.5" cy="47.7" r="1.8"/><circle cx="171.8" cy="50.2" r="1.8"/><circle cx="170.8" cy="52.8" r="1.8"/><circle cx="170.6" cy="55.3" r="1.8"/><circle cx="171.2" cy="57.9" r="1.8"/><circle cx="172.5" cy="60.5" r="1.8"/><circle cx="174.6" cy="63.0" r="1.8"/><circle cx="177.4" cy="65.5" r="1.8"/><circle cx="181.0" cy="67.9" r="1.8"/><circle cx="208.7" cy="78.5" r="1.8"/><circle cx="216.0" cy="80.2" r="1.8"/><circle cx="249.8" cy="85.6" r="1.8"/><circle cx="259.1" cy="86.5" r="1.8"/><circle cx="373.2" cy="82.3" r="1.8"/><circle cx="381.1" cy="80.8" r="1.8"/><circle cx="388.6" cy="79.1" r="1.8"/><circle cx="395.6" cy="77.3" r="1.8"/><circle cx="402.0" cy="75.3" r="1.8"/><circle cx="407.8" cy="73.2" r="1.8"/><circle cx="413.0" cy="71.0" r="1.8"/><circle cx="417.5" cy="68.7" r="1.8"/><circle cx="421.3" cy="66.3" r="1.8"/><circle cx="424.4" cy="63.9" r="1.8"/><circle cx="426.8" cy="61.4" r="1.8"/><circle cx="428.4" cy="58.9" r="1.8"/><circle cx="429.2" cy="56.3" r="1.8"/><circle cx="429.3" cy="53.7" r="1.8"/><circle cx="428.7" cy="51.2" r="1.8"/><circle cx="427.2" cy="48.6" r="1.8"/><circle cx="425.0" cy="46.1" r="1.8"/><circle cx="422.1" cy="43.6" r="1.8"/><circle cx="418.4" cy="41.2" r="1.8"/><circle cx="414.1" cy="38.9" r="1.8"/><circle cx="197.7" cy="34.0" r="1.8"/><circle cx="192.8" cy="36.3" r="1.8"/><circle cx="188.6" cy="38.6" r="1.8"/><circle cx="185.2" cy="41.0" r="1.8"/><circle cx="182.6" cy="43.5" r="1.8"/><circle cx="180.8" cy="46.1" r="1.8"/><circle cx="179.8" cy="48.6" r="1.8"/><circle cx="179.6" cy="51.2" r="1.8"/><circle cx="180.2" cy="53.8" r="1.8"/><circle cx="181.7" cy="56.3" r="1.8"/><circle cx="183.9" cy="58.8" r="1.8"/><circle cx="186.9" cy="61.3" r="1.8"/><circle cx="190.8" cy="63.6" r="1.8"/><circle cx="195.3" cy="65.9" r="1.8"/><circle cx="206.5" cy="70.2" r="1.8"/><circle cx="213.1" cy="72.1" r="1.8"/><circle cx="244.9" cy="78.2" r="1.8"/><circle cx="253.9" cy="79.3" r="1.8"/><circle cx="263.3" cy="80.2" r="1.8"/><circle cx="312.4" cy="81.5" r="1.8"/><circle cx="322.2" cy="81.1" r="1.8"/><circle cx="375.8" cy="74.7" r="1.8"/><circle cx="383.3" cy="73.0" r="1.8"/><circle cx="396.5" cy="69.2" r="1.8"/><circle cx="402.1" cy="67.0" r="1.8"/><circle cx="407.0" cy="64.8" r="1.8"/><circle cx="411.2" cy="62.5" r="1.8"/><circle cx="414.7" cy="60.1" r="1.8"/><circle cx="417.3" cy="57.6" r="1.8"/><circle cx="419.2" cy="55.0" r="1.8"/><circle cx="420.2" cy="52.5" r="1.8"/><circle cx="420.4" cy="49.9" r="1.8"/><circle cx="419.8" cy="47.3" r="1.8"/><circle cx="418.4" cy="44.8" r="1.8"/><circle cx="416.2" cy="42.3" r="1.8"/><circle cx="413.2" cy="39.8" r="1.8"/><circle cx="409.4" cy="37.5" r="1.8"/><circle cx="404.9" cy="35.2" r="1.8"/><circle cx="399.6" cy="33.0" r="1.8"/><circle cx="208.0" cy="30.4" r="1.8"/><circle cx="202.8" cy="32.5" r="1.8"/><circle cx="198.3" cy="34.8" r="1.8"/><circle cx="194.7" cy="37.2" r="1.8"/><circle cx="191.9" cy="39.7" r="1.8"/><circle cx="189.9" cy="42.2" r="1.8"/><circle cx="188.9" cy="44.8" r="1.8"/><circle cx="188.7" cy="47.4" r="1.8"/><circle cx="189.4" cy="49.9" r="1.8"/><circle cx="191.0" cy="52.5" r="1.8"/><circle cx="193.4" cy="55.0" r="1.8"/><circle cx="196.8" cy="57.4" r="1.8"/><circle cx="200.9" cy="59.7" r="1.8"/><circle cx="205.8" cy="62.0" r="1.8"/><circle cx="217.9" cy="66.1" r="1.8"/><circle cx="224.9" cy="67.9" r="1.8"/><circle cx="249.4" cy="72.3" r="1.8"/><circle cx="258.4" cy="73.3" r="1.8"/><circle cx="267.8" cy="74.2" r="1.8"/><circle cx="277.5" cy="74.8" r="1.8"/><circle cx="370.8" cy="68.8" r="1.8"/><circle cx="378.2" cy="67.1" r="1.8"/><circle cx="385.0" cy="65.2" r="1.8"/><circle cx="391.1" cy="63.2" r="1.8"/><circle cx="396.4" cy="61.0" r="1.8"/><circle cx="401.0" cy="58.7" r="1.8"/><circle cx="404.8" cy="56.3" r="1.8"/><circle cx="407.7" cy="53.9" r="1.8"/><circle cx="409.8" cy="51.4" r="1.8"/><circle cx="411.0" cy="48.8" r="1.8"/><circle cx="411.4" cy="46.2" r="1.8"/><circle cx="410.8" cy="43.7" r="1.8"/><circle cx="409.3" cy="41.1" r="1.8"/><circle cx="407.0" cy="38.6" r="1.8"/><circle cx="403.8" cy="36.2" r="1.8"/><circle cx="399.8" cy="33.8" r="1.8"/><circle cx="395.0" cy="31.6" r="1.8"/><circle cx="389.5" cy="29.4" r="1.8"/><circle cx="224.9" cy="25.1" r="1.8"/><circle cx="218.5" cy="27.1" r="1.8"/><circle cx="212.9" cy="29.2" r="1.8"/><circle cx="208.2" cy="31.4" r="1.8"/><circle cx="204.2" cy="33.8" r="1.8"/><circle cx="201.2" cy="36.3" r="1.8"/><circle cx="199.2" cy="38.8" r="1.8"/><circle cx="198.1" cy="41.3" r="1.8"/><circle cx="197.9" cy="43.9" r="1.8"/><circle cx="203.3" cy="51.5" r="1.8"/><circle cx="206.9" cy="53.9" r="1.8"/><circle cx="211.4" cy="56.2" r="1.8"/><circle cx="223.0" cy="60.4" r="1.8"/><circle cx="229.8" cy="62.2" r="1.8"/><circle cx="263.3" cy="67.7" r="1.8"/><circle cx="272.7" cy="68.5" r="1.8"/><circle cx="282.4" cy="69.0" r="1.8"/><circle cx="292.3" cy="69.4" r="1.8"/><circle cx="373.4" cy="61.4" r="1.8"/><circle cx="379.9" cy="59.5" r="1.8"/><circle cx="385.7" cy="57.4" r="1.8"/><circle cx="402.1" cy="42.7" r="1.8"/><circle cx="401.5" cy="40.2" r="1.8"/><circle cx="400.0" cy="37.6" r="1.8"/><circle cx="397.5" cy="35.1" r="1.8"/><circle cx="394.1" cy="32.7" r="1.8"/><circle cx="389.8" cy="30.4" r="1.8"/><circle cx="384.6" cy="28.2" r="1.8"/><circle cx="378.7" cy="26.1" r="1.8"/><circle cx="229.4" cy="24.1" r="1.8"/><circle cx="207.3" cy="40.8" r="1.8"/><circle cx="208.3" cy="43.3" r="1.8"/><circle cx="213.4" cy="48.3" r="1.8"/><circle cx="217.4" cy="50.7" r="1.8"/><circle cx="222.4" cy="52.9" r="1.8"/><circle cx="228.3" cy="55.0" r="1.8"/><circle cx="259.3" cy="61.3" r="1.8"/><circle cx="268.5" cy="62.3" r="1.8"/><circle cx="278.0" cy="63.0" r="1.8"/><circle cx="287.8" cy="63.5" r="1.8"/><circle cx="297.7" cy="63.7" r="1.8"/><circle cx="374.9" cy="53.9" r="1.8"/><circle cx="392.1" cy="36.8" r="1.8"/><circle cx="390.4" cy="34.3" r="1.8"/><circle cx="387.7" cy="31.8" r="1.8"/><circle cx="383.9" cy="29.4" r="1.8"/><circle cx="379.2" cy="27.2" r="1.8"/><circle cx="373.5" cy="25.1" r="1.8"/><circle cx="367.1" cy="23.1" r="1.8"/><circle cx="359.8" cy="21.3" r="1.8"/><circle cx="216.8" cy="35.4" r="1.8"/><circle cx="228.4" cy="47.8" r="1.8"/><circle cx="234.0" cy="49.9" r="1.8"/><circle cx="264.7" cy="56.3" r="1.8"/><circle cx="274.0" cy="57.2" r="1.8"/><circle cx="283.6" cy="57.9" r="1.8"/><circle cx="293.5" cy="58.2" r="1.8"/><circle cx="377.4" cy="28.7" r="1.8"/><circle cx="373.1" cy="26.4" r="1.8"/><circle cx="367.9" cy="24.2" r="1.8"/><circle cx="361.6" cy="22.2" r="1.8"/><circle cx="354.5" cy="20.4" r="1.8"/><circle cx="346.6" cy="18.9" r="1.8"/><circle cx="226.5" cy="35.6" r="1.8"/><circle cx="230.7" cy="40.6" r="1.8"/><circle cx="234.7" cy="43.0" r="1.8"/><circle cx="261.6" cy="50.4" r="1.8"/><circle cx="270.4" cy="51.6" r="1.8"/><circle cx="279.8" cy="52.5" r="1.8"/><circle cx="289.5" cy="53.0" r="1.8"/><circle cx="299.4" cy="53.2" r="1.8"/><circle cx="373.4" cy="35.9" r="1.8"/><circle cx="366.6" cy="25.9" r="1.8"/><circle cx="361.7" cy="23.6" r="1.8"/><circle cx="355.7" cy="21.6" r="1.8"/><circle cx="236.0" cy="31.0" r="1.8"/><circle cx="246.1" cy="40.8" r="1.8"/><circle cx="259.3" cy="44.6" r="1.8"/><circle cx="267.4" cy="46.1" r="1.8"/><circle cx="276.4" cy="47.2" r="1.8"/><circle cx="285.9" cy="48.0" r="1.8"/><circle cx="295.7" cy="48.3" r="1.8"/><circle cx="305.6" cy="48.3" r="1.8"/><circle cx="341.7" cy="44.4" r="1.8"/><circle cx="349.5" cy="21.2" r="1.8"/><circle cx="265.3" cy="40.6" r="1.8"/><circle cx="273.5" cy="42.1" r="1.8"/><circle cx="282.5" cy="43.1" r="1.8"/><circle cx="292.2" cy="43.7" r="1.8"/><circle cx="302.1" cy="43.8" r="1.8"/><circle cx="337.9" cy="39.9" r="1.8"/><circle cx="342.8" cy="21.1" r="1.8"/><circle cx="264.5" cy="35.1" r="1.8"/><circle cx="279.7" cy="38.4" r="1.8"/><circle cx="288.9" cy="39.3" r="1.8"/><circle cx="298.8" cy="39.6" r="1.8"/><circle cx="295.6" cy="35.7" r="1.8"/></g></svg>